<svg width="90" height="90" viewBox="0 0 90 90" fill="none" xmlns="http://www.w3.org/2000/svg">
<path fill-rule="evenodd" clip-rule="evenodd" d="M68.0548 33.1768C68.2705 33.0057 68.5086 32.8755 68.7616 32.7787C69.022 32.6783 69.2972 32.6151 69.5725 32.5927C69.6469 32.5853 69.7176 32.5779 69.7883 32.5741C69.8627 32.5667 69.9371 32.5667 70.0078 32.5667C70.9526 32.5667 71.8082 32.9499 72.4295 33.5674C72.9986 34.1365 73.3706 35.3009 73.3706 36.3165C73.4599 36.3016 73.5455 36.283 73.631 36.2644H73.6348C73.6682 36.2569 73.7798 36.2309 73.8096 36.2309C73.977 36.1937 74.1444 36.1565 74.3155 36.1193C74.3639 36.097 74.5238 36.0672 74.5908 36.0486L74.6168 36.0412V36.0449L74.721 36.0151C74.7322 35.2674 74.5015 34.1179 74.1556 33.5525C73.7464 32.8792 73.1474 32.3063 72.4109 31.8673C71.1796 31.1382 69.7994 31.101 68.5793 31.5251C67.7944 31.8004 67.0764 32.2691 66.511 32.8717C65.9418 33.4744 65.5252 34.2072 65.3392 35.0145C65.075 36.1677 65.2871 37.4771 66.2171 38.7605C66.6709 39.3297 67.2066 39.7686 67.7832 40.0774C68.6128 40.5201 69.5316 40.6949 70.4318 40.6093C71.3284 40.5238 72.2026 40.1778 72.9466 39.5826C73.4302 39.1957 74.1704 38.2211 74.5499 37.5664L74.4829 37.5813C74.4383 37.6036 74.1704 37.6519 74.096 37.6668L74.0365 37.6817C73.9398 37.7003 73.8468 37.7189 73.7501 37.7375L73.7278 37.7449C73.7278 37.7449 73.6273 37.7635 73.6124 37.7673C73.5864 37.7673 73.5455 37.7821 73.5194 37.7821C73.5083 37.7821 73.4674 37.7933 73.4562 37.797V37.7933L73.3297 37.8156C73.1512 37.8491 72.9726 37.8751 72.7903 37.9012C72.463 38.3625 71.8008 38.9353 71.4176 39.1102C70.9898 39.3036 70.51 39.4152 70.0078 39.4152C69.4907 39.4152 68.9959 39.2962 68.5532 39.0916C66.816 38.1913 66.5854 37.1163 66.5854 35.9891C66.5854 35.4162 66.723 34.8768 66.976 34.4007C67.2326 33.9096 67.6046 33.4893 68.0548 33.1768ZM70.2049 87.2619C69.7548 87.1131 69.4088 86.7931 69.0443 86.4583C68.8174 86.25 68.583 86.0343 68.3189 85.8594L68.2928 85.8408L68.278 85.8185C68.144 85.6176 67.9915 85.4577 67.8427 85.3014C67.4596 84.8997 67.0987 84.5239 67.0987 83.6535V64.9493C67.0987 64.4955 67.1024 63.9821 67.1099 63.4873C67.1508 59.6929 67.1806 56.9848 64.1748 55.3815L64.1599 55.3703C63.8288 55.1397 63.6466 55.0169 63.4606 54.8904C60.8789 53.116 59.3797 52.0893 57.8768 49.0835C56.0615 45.7727 55.7602 42.4619 56.4186 39.5268C57.1961 36.0523 59.3165 33.1098 61.8498 31.3391C64.5691 29.2745 67.7051 28.5677 70.6141 28.6867C74.2969 28.8393 77.63 30.3161 79.3226 32.0422L79.345 32.0608C79.345 32.0645 79.9922 32.7118 80.4982 33.2512C80.5763 33.1954 80.6618 33.1321 80.6618 33.1284C80.7809 33.0726 81.1343 32.7601 81.2645 32.6523L81.3352 32.5927C81.4058 32.5332 81.4728 32.4774 81.5435 32.4179C81.5472 32.4142 81.5918 32.3733 81.5918 32.3733L81.6551 32.3175L81.7444 32.2393L81.7481 32.2356C81.391 31.8599 80.8218 31.2759 80.5391 31.0043C80.1671 30.6509 79.7839 30.3049 79.3933 29.959C78.0616 28.962 76.5624 28.2329 74.9591 27.7456C73.259 27.2322 71.44 26.9941 69.5576 26.9941C67.3926 26.9941 65.2945 27.4554 63.3452 28.3891C61.448 29.3005 59.6885 30.6583 58.1261 32.4811C55.5779 35.7473 54.3986 39.7128 54.6851 43.5779C54.7186 43.9648 54.7706 44.4335 54.8227 44.7906C55.3696 48.3507 57.1849 51.7507 60.3469 54.3547C61.5038 55.2401 62.4041 55.7683 63.0997 56.1813C65.3764 57.5205 65.5512 57.6246 65.5512 64.023V78.5719C65.5512 79.6879 65.514 80.6179 65.4805 81.4066C65.3392 84.8848 65.3168 85.4874 69.4163 88.8429C69.5056 88.8949 69.6023 88.9359 69.6953 88.9656C69.7957 88.9954 69.8962 89.0103 70.0003 89.0177C70.1045 89.0065 70.2086 88.9842 70.3165 88.9545C70.4244 88.921 70.5323 88.8838 70.6402 88.8317C72.463 87.8087 73.7129 86.7299 74.4197 85.4279C75.1228 84.1333 75.2939 82.6081 74.9516 80.6812C74.788 79.8665 74.2486 79.4089 73.7054 78.9477C73.5157 78.7877 73.326 78.6277 73.1474 78.4492L73.0396 78.3413L73.1474 78.2371C73.2776 78.1069 73.4339 77.9656 73.5938 77.8242C74.2225 77.2662 74.9479 76.6227 74.9479 75.5699C74.9479 74.3349 73.9472 73.669 73.2739 73.2263L73.0656 73.0887L73.114 72.9733C73.3892 72.3261 73.7315 72.0657 74.0514 71.8201C74.5276 71.4593 74.9479 71.1357 74.9479 69.3352C74.9479 67.4491 74.4829 67.0846 73.9807 66.6903C73.6831 66.4596 73.3744 66.2178 73.1177 65.7082L73.0582 65.5854L73.1698 65.5147C75.1525 64.2313 75.0595 62.6317 74.9665 61.0433C74.8772 59.5181 74.7917 58.0041 76.3913 56.7467L76.3987 56.743C77.113 56.2222 77.7416 55.8279 78.3257 55.4596C79.8062 54.5296 81.0227 53.7633 82.8343 51.4606C83.6676 50.2665 84.3781 48.8268 84.8654 47.1975C85.3118 45.7095 85.5722 44.0652 85.5722 42.3168C85.5722 40.6651 85.3118 39.0544 84.8431 37.5775C84.393 36.1528 83.4816 34.4565 82.6855 33.3293C82.4474 33.5413 82.2019 33.7459 81.9527 33.9468C81.9527 33.9505 81.9341 33.9654 81.9304 33.9654C81.763 34.0956 81.5993 34.2258 81.4282 34.3523C82.2689 35.5613 83.1468 37.425 83.5114 38.9465C83.9206 40.6614 84.0284 42.447 83.7941 43.9536C83.5597 46.5167 82.8008 48.6185 81.6067 50.3669C80.4089 52.119 78.7758 53.5177 76.793 54.6858C73.2516 56.8099 73.3186 58.5174 73.4041 60.6787C73.4264 61.2925 73.4525 61.9435 73.4041 62.6503V62.6578C73.2851 63.5878 72.6973 63.9672 72.1244 64.3355C71.5478 64.7038 70.9898 65.0646 71.0903 66.0616C71.3395 66.5377 71.7152 66.8167 72.0872 67.092C72.7531 67.5831 73.4041 68.0629 73.4041 69.5658V69.5844C73.2776 70.7153 72.7085 71.0724 72.117 71.4481C71.6148 71.7643 71.0903 72.0954 70.8708 73.0105C71.187 73.6095 71.6483 73.9368 72.0947 74.2493C72.6304 74.625 73.14 74.9859 73.3967 75.7559L73.4227 75.834L73.3706 75.8973C72.7382 76.6673 72.1319 77.1249 71.6743 77.4671C71.44 77.6419 71.2465 77.787 71.12 77.9247C70.7406 78.3339 71.001 78.7654 72.6601 80.3055C73.4711 80.9193 73.4525 81.5182 73.419 82.5114C73.4116 82.7123 73.4041 82.9318 73.4041 83.1922C73.4041 83.9139 73.0582 84.6281 72.5708 85.2679C71.9198 86.1198 71.0047 86.8415 70.3277 87.247L70.2682 87.2842L70.2049 87.2619Z" fill="#1D8F80"/>
<path fill-rule="evenodd" clip-rule="evenodd" d="M53.9969 35.2975L32.0563 57.238C31.2268 58.0676 30.5497 58.7707 29.9657 59.377C28.0796 61.3412 27.1348 62.3196 26.1118 62.3196C25.0888 62.3196 24.1141 61.3412 22.1611 59.3808C21.5473 58.767 20.8368 58.0527 19.9961 57.2418L11.9088 48.9238C9.63216 46.6472 9.4164 46.1041 11.4326 44.0878C11.8046 43.7121 12.2808 43.2694 12.8425 42.7412C13.6498 41.986 14.643 41.056 15.8371 39.8619L32.2349 23.2335C33.0607 22.4077 33.7378 21.7046 34.3255 21.0945C36.2562 19.0894 37.2383 18.0664 38.2985 18.0664C39.3959 18.0664 40.4412 19.1713 42.5728 21.4256C43.0787 21.965 43.6516 22.5676 44.2951 23.2372L52.6242 31.332L52.6354 31.3506C52.7246 31.4845 52.892 31.6593 53.0892 31.8602C53.8667 32.6712 55.0199 33.869 54.0155 35.2714L54.0043 35.29L53.9969 35.2975ZM29.2589 62.2712V62.2749L29.2626 62.2712C29.5118 62.0331 29.7574 61.7802 29.988 61.5272L35.2853 56.1258C37.7926 53.6854 41.1629 50.3672 44.429 47.1308C49.6333 41.9749 54.5698 37.0384 55.2989 36.2014C55.8494 34.985 56.0726 34.2112 55.9648 33.5119C55.8569 32.8088 55.4105 32.1392 54.6293 31.1348C53.7625 30.3536 51.6496 28.2295 49.265 25.8375C45.2214 21.7753 40.404 16.9356 39.6972 16.638C37.1304 15.8568 35.4043 17.7726 33.2839 20.1348C33.057 20.384 32.8301 20.6407 32.525 20.9718L32.5176 20.9792C32.3576 21.1392 31.6769 21.8125 30.6725 22.802C25.1222 28.263 9.38292 43.7568 9.0072 44.6979L8.99976 44.7128L8.99604 44.7202C7.6308 47.2536 9.96696 49.5004 11.7637 51.2302C12.0055 51.4609 12.2362 51.6841 12.4259 51.8701C13.46 52.7926 14.4421 53.7152 15.4242 54.6712C16.4323 55.6496 17.4032 56.6168 18.43 57.6472C18.642 57.8556 18.9954 58.2201 19.412 58.6516C20.9819 60.2624 23.4929 62.8441 24.3931 63.3872C26.2568 64.4511 27.9011 63.5509 29.2589 62.2712ZM67.4782 27.1321L67.6344 27.1172C68.0622 27.0614 68.4974 27.0242 68.9327 27.0056C68.9252 26.6262 68.9215 26.1426 68.8285 25.778L68.8248 25.7668V25.7594C68.2333 23.0029 64.1004 19.1006 60.4622 15.6633C58.2898 13.6173 56.2958 11.7313 55.3063 10.3288L55.2356 10.2284L55.2914 10.1205C56.2884 8.2568 57.8731 6.39308 59.9489 4.87904C61.7791 3.54356 63.9925 2.47964 66.5147 1.9328C67.069 1.81004 67.6195 1.71332 68.1626 1.64264C72.9986 1.0028 77.3548 2.34944 80.7362 4.8902C84.1103 7.43096 86.5097 11.1621 87.4285 15.295C87.5401 15.7898 87.6294 16.2883 87.6926 16.7942L87.7075 16.9095L87.7112 16.9132L87.7373 17.1439C87.7447 17.2071 87.7522 17.2815 87.7596 17.3782C87.7745 17.4973 87.7819 17.62 87.7931 17.7391C87.7968 17.8098 87.8042 17.8879 87.808 17.9734C87.8154 18.0962 87.8228 18.2152 87.8266 18.338L87.8377 18.5761V18.684C87.8414 18.7621 87.8414 18.8476 87.8414 18.9332C87.8414 19.015 87.8414 19.1006 87.8414 19.1824V19.2866C87.8414 19.3722 87.8377 19.4577 87.834 19.5396C87.834 19.6326 87.8303 19.7181 87.8266 19.7962L87.8228 19.8855C87.8154 19.9822 87.8117 20.0678 87.808 20.1459C87.8005 20.2426 87.7931 20.3282 87.7894 20.4063L87.7819 20.4882C87.7745 20.5551 87.767 20.6407 87.7559 20.7486C87.7447 20.849 87.7373 20.9383 87.7298 21.009L87.7187 21.0834C87.7112 21.1578 87.7001 21.247 87.6852 21.3512C87.6703 21.4591 87.6592 21.5484 87.648 21.619L87.6443 21.6228L87.6368 21.6823C87.6182 21.8013 87.6034 21.8943 87.5922 21.9613C87.5736 22.0506 87.5587 22.1398 87.5401 22.2366L87.529 22.2886C87.5141 22.3742 87.4918 22.4672 87.4732 22.5676C87.4546 22.6606 87.4322 22.7536 87.4099 22.8466L87.3988 22.8913C87.3802 22.988 87.3541 23.081 87.3318 23.1777C87.3058 23.2744 87.2834 23.3712 87.2574 23.4642L87.25 23.4865C87.2314 23.5572 87.2053 23.6539 87.1681 23.7766C87.1384 23.8771 87.1086 23.9738 87.0826 24.0631L87.0751 24.0854C87.0454 24.1896 87.0119 24.2863 86.9821 24.3756C86.9561 24.45 86.9226 24.5467 86.8854 24.662L86.8742 24.6918C86.8445 24.7736 86.811 24.8703 86.7701 24.9782C86.7292 25.0861 86.692 25.1828 86.6622 25.2646L86.651 25.2907C86.6138 25.3874 86.5729 25.4841 86.532 25.5808C86.4948 25.6701 86.4539 25.7668 86.4092 25.871L86.4055 25.8784C86.3646 25.9714 86.32 26.0682 86.2753 26.1723C86.2232 26.2802 86.1786 26.3806 86.1377 26.4662C85.9703 26.7936 85.8029 27.1209 85.6206 27.4371C85.4048 27.8166 85.1779 28.1811 84.9361 28.5382H84.9324C84.739 28.8284 84.5306 29.1111 84.3112 29.3864C84.2107 29.5129 84.1066 29.6431 83.9987 29.7696C83.9354 29.844 83.8722 29.9184 83.809 29.9928L83.7383 30.0746C83.7234 30.0895 83.5486 30.2941 83.5448 30.2941C83.437 30.4131 83.3328 30.5284 83.2249 30.6475L83.2175 30.6549L82.6037 31.3245C82.4586 31.4845 82.3172 31.6407 82.1722 31.8007C82.0568 31.9309 81.9638 32.0425 81.8336 32.1578L81.8299 32.1652V32.1615C81.8262 32.1652 81.8262 32.1652 81.8225 32.169L81.7481 32.2359L81.7444 32.2396L81.6551 32.3178L81.5918 32.3736C81.5918 32.3736 81.5472 32.4145 81.5435 32.4182C81.4728 32.4777 81.4058 32.5335 81.3352 32.593L81.2645 32.6526C81.1343 32.7604 80.7809 33.0729 80.6618 33.1287V33.1324H80.6581V33.1362H80.6544V33.1399H80.6507H80.647V33.1436H80.6432V33.1473H80.6395L80.6358 33.151L80.6321 33.1548H80.6284V33.1585H80.6246L80.6209 33.1622L80.6172 33.1659H80.6135V33.1696H80.6098L80.606 33.1734H80.6023V33.1771L80.5986 33.1808H80.5949L80.5912 33.1845L80.5874 33.1882H80.5837V33.192H80.58V33.1957H80.5763L80.5726 33.1994L80.5688 33.2031H80.5651L80.5614 33.2068L80.5577 33.2106H80.554L80.5502 33.2143L80.5465 33.218L80.5428 33.2217H80.5391L80.5354 33.2254L80.5316 33.2292H80.5279L80.5242 33.2329V33.2366H80.5205L80.5168 33.2403H80.513L80.5093 33.244L80.5056 33.2478H80.5019L80.4982 33.2515L80.3791 33.3408L80.3531 33.3594C79.5533 33.936 78.694 34.4493 77.7863 34.8883C76.9009 35.3124 75.9672 35.6695 74.9851 35.9448C74.8996 35.9708 74.8103 35.9931 74.721 36.0154L74.7136 36.0192H74.7098L74.7024 36.0229L74.6317 36.0415H74.628H74.6206L74.6168 36.0452V36.0415L74.5908 36.0489C74.5238 36.0675 74.3639 36.0973 74.3155 36.1196C74.1444 36.1568 73.977 36.194 73.8096 36.2312C73.7798 36.2312 73.6682 36.2572 73.6348 36.2647H73.631L73.6273 36.2684H73.6236H73.6199H73.6162L73.6124 36.2721H73.6087H73.605H73.6013H73.5976H73.5938V36.2758H73.5901H73.5864H73.5827H73.579H73.5752V36.2796H73.5715H73.5678H73.5641H73.5604H73.5566V36.2833H73.5529H73.5492H73.5455H73.5418H73.538V36.287H73.5343H73.5306H73.5269H73.5232L73.5194 36.2907H73.5157H73.512H73.5083H73.5046H73.5008H73.4971V36.2944H73.4934H73.4897H73.486H73.4822L73.4785 36.2982H73.4748H73.4711H73.4674H73.4636H73.4599H73.4562L73.4525 36.3019H73.4488H73.445H73.4413L73.4376 36.3056H73.4339H73.4302H73.4264H73.4227H73.419H73.4153L73.4116 36.3093H73.4078H73.4041H73.4004H73.3967L73.393 36.313H73.3892H73.3855H73.3818H73.3781H73.3744L73.3706 36.3168L73.3111 36.3242C70.9006 36.7185 68.862 36.4842 67.1731 36.287C66.9797 36.2647 66.7862 36.2424 66.5891 36.22C66.6077 36.778 66.7044 37.3212 67.0392 37.8308C67.8167 37.9461 69.1633 38.0763 69.9408 38.0875C70.7555 38.0986 71.5925 38.054 72.4444 37.9461C72.5597 37.935 72.675 37.9164 72.7903 37.9015H72.8015H72.8052L72.8089 37.8978H72.8164H72.8201H72.8312L72.835 37.894H72.8424H72.8461L72.8573 37.8903H72.861H72.8722H72.8759L72.8833 37.8866L72.928 37.8829L72.9354 37.8792H72.9428H72.9503H72.9577L72.9614 37.8754H72.9689H72.9726H72.9763L72.9838 37.8717H72.9949H72.9986H73.0024L73.0098 37.868H73.0135H73.021H73.0247H73.0284L73.0358 37.8643L73.0619 37.8606H73.0693H73.0768L73.0805 37.8568H73.0879H73.0954L73.1028 37.8531H73.1214L73.1288 37.8494H73.1363H73.1437L73.1512 37.8457H73.1549H73.1623H73.166L73.1698 37.842H73.1772H73.1809H73.1884H73.1921L73.1958 37.8382H73.2032H73.207H73.2107L73.2181 37.8345H73.2218H73.2293H73.233L73.2367 37.8308H73.2442H73.2479H73.2553L73.2628 37.8271H73.2702H73.2739H73.2814L73.2888 37.8234H73.2962L73.3037 37.8196H73.3148H73.3223L73.3297 37.8159L73.4562 37.7936V37.7973C73.4674 37.7936 73.5083 37.7824 73.5194 37.7824C73.5455 37.7824 73.5864 37.7676 73.6124 37.7676C73.6273 37.7638 73.7278 37.7452 73.7278 37.7452L73.7501 37.7378C73.8468 37.7192 73.9398 37.7006 74.0365 37.682L74.096 37.6671C74.1704 37.6522 74.4383 37.6039 74.4829 37.5816L74.5387 37.5667H74.5499C75.7254 37.284 76.9046 36.8822 78.0578 36.354C79.1664 35.8406 80.2564 35.2119 81.298 34.4493C81.3426 34.4158 81.3835 34.3861 81.4282 34.3526L81.4356 34.3452H81.4393L81.443 34.3414L81.4468 34.3377L81.4542 34.334L81.4579 34.3303H81.4616L81.4691 34.3228L81.4765 34.3154L81.484 34.3117L81.4877 34.308L81.5063 34.2931L81.5174 34.2856L81.5249 34.2819L81.5286 34.2782L81.5323 34.2745L81.536 34.2708L81.5398 34.267L81.5472 34.2633L81.5546 34.2559H81.5584L81.5621 34.2522L81.5658 34.2484L81.5695 34.2447L81.577 34.241V34.2373L81.5881 34.2336L81.5956 34.2261L81.603 34.2224L81.6067 34.2187L81.6104 34.215L81.6179 34.2112V34.2075L81.6253 34.2038L81.6328 34.1964L81.6365 34.1926L81.6402 34.1889L81.6476 34.1852L81.6551 34.1778H81.6588L81.6662 34.174V34.1703L81.6737 34.1666L81.6774 34.1629L81.6811 34.1592L81.6848 34.1554H81.6886L81.696 34.148L81.7034 34.1406L81.7109 34.1368L81.7146 34.1331L81.7183 34.1294L81.7258 34.1257V34.122L81.7332 34.1182H81.7369L81.7444 34.1108L81.7518 34.1071L81.7555 34.1034L81.7592 34.0996L81.763 34.0959L81.7667 34.0922L81.7741 34.0885L81.7816 34.081H81.7853L81.789 34.0736H81.7927L81.7964 34.0699L81.8039 34.0662L81.8076 34.0624L81.815 34.0587L81.8225 34.0513L81.8299 34.0438L81.8336 34.0401H81.8374L81.8411 34.0327H81.8448L81.8522 34.0252L81.8597 34.0215L81.8634 34.0178L81.8671 34.0141L81.8708 34.0104L81.8783 34.0066L81.882 34.0029H81.8857L81.8932 33.9955L81.9006 33.988L81.908 33.9843L81.9118 33.9806L81.9155 33.9769L81.9229 33.9732L81.9304 33.9657C81.9341 33.9657 81.9527 33.9508 81.9527 33.9471L81.9676 33.9397L81.9787 33.9285L81.9899 33.9211V33.9174L82.001 33.9099L82.0122 33.8988H82.0159L82.0234 33.8913L82.0271 33.8876L82.0345 33.8802H82.0382L82.0457 33.8727L82.0494 33.869L82.0606 33.8616L82.0643 33.8578L82.0717 33.8541L82.0754 33.8504L82.0829 33.843L82.0866 33.8392L82.094 33.8355L82.0978 33.8281L82.1052 33.8244L82.1126 33.8206L82.1164 33.8132L82.1238 33.8095L82.1275 33.8058L82.135 33.7983L82.1387 33.7946L82.1461 33.7909L82.1498 33.7872L82.1573 33.7797L82.161 33.776L82.1722 33.7686L82.1833 33.7611L82.187 33.7574L82.1945 33.75L82.1982 33.7462L82.2056 33.7388H82.2094L82.2205 33.7314V33.7276L82.2317 33.7202L82.2428 33.709L82.254 33.7016L82.2652 33.6904L82.2763 33.683L82.28 33.6793L82.2875 33.6718H82.2912L82.2986 33.6607H82.3024L82.3098 33.6532L82.3135 33.6495L82.3247 33.6421L82.3358 33.6346L82.3396 33.6309L82.347 33.6235L82.3507 33.6198L82.3582 33.6123L82.3619 33.6086L82.3693 33.6049L82.373 33.6012L82.3805 33.5937L82.3842 33.59L82.3916 33.5863L82.3954 33.5788L82.4028 33.5751L82.4102 33.5714L82.414 33.564L82.4214 33.5602L82.4251 33.5565L82.4326 33.5491L82.4363 33.5454L82.4437 33.5379H82.4474L82.4549 33.5305L82.4586 33.5268L82.466 33.5193L82.4698 33.5156L82.4809 33.5082L82.5032 33.4896L82.5144 33.4784L82.5256 33.4672L82.5404 33.4598L82.5516 33.4486L82.5628 33.4375L82.5739 33.43V33.4263L82.5851 33.4189L82.5962 33.4114V33.4077L82.6074 33.4003V33.3966L82.6186 33.3891H82.6223L82.6297 33.3817L82.6334 33.378L82.6409 33.3705L82.6446 33.3668L82.652 33.3594L82.6558 33.3556L82.6632 33.3519L82.6669 33.3482L82.6744 33.3408L82.6781 33.337L82.6855 33.3296L82.7153 33.3036V33.3073C82.7339 33.2887 82.7525 33.2701 82.7711 33.2515C82.8864 33.151 82.9943 33.0506 83.0984 32.9539C83.2063 32.8534 83.3142 32.7493 83.4184 32.6451C83.5448 32.5186 83.6862 32.3959 83.8164 32.2694C83.8871 32.2024 83.9615 32.1318 84.0322 32.0611C84.0991 31.9904 84.1661 31.9197 84.2405 31.8453C84.3781 31.7002 84.512 31.5514 84.646 31.4026C84.7092 31.332 84.7799 31.2501 84.8543 31.1646C84.9287 31.079 84.9956 30.9972 85.0589 30.919C85.1333 30.826 85.2077 30.733 85.2858 30.64H85.2821C85.3342 30.5731 85.3862 30.5061 85.4383 30.4392C85.5053 30.3499 85.5722 30.2606 85.6392 30.1713C85.7024 30.082 85.7694 29.9928 85.8364 29.8998C85.9033 29.803 85.9703 29.7063 86.0372 29.6096V29.6059C86.0596 29.5724 86.1451 29.4348 86.1674 29.4124C86.227 29.3232 86.2939 29.2227 86.3609 29.1111C86.4204 29.0181 86.4836 28.914 86.5543 28.7986L86.6994 28.5568L86.7887 28.4006C86.7961 28.3894 86.8445 28.3002 86.8445 28.2964C86.9152 28.1737 86.9784 28.0621 87.0305 27.9616C87.0826 27.8686 87.1421 27.7533 87.209 27.6194L87.2351 27.571C87.276 27.4855 87.3206 27.3999 87.3616 27.3144C87.4397 27.1544 87.5141 26.9982 87.581 26.8456C87.6554 26.6782 87.7261 26.5183 87.7894 26.3695C87.834 26.269 87.8712 26.1686 87.9121 26.0682C87.9754 25.9082 88.0423 25.7445 88.1056 25.5697C88.1688 25.3948 88.2283 25.2274 88.2841 25.0675L88.3362 24.9075L88.3846 24.7624C88.4329 24.6025 88.4887 24.4276 88.5445 24.2342C88.6003 24.0408 88.6487 23.8622 88.6896 23.6948L88.697 23.6725C88.7194 23.5832 88.7417 23.4902 88.764 23.4009C88.8049 23.2224 88.8496 23.0364 88.8868 22.8392C88.924 22.6644 88.9612 22.4746 88.9984 22.2738V22.2663C89.0839 21.7753 89.1509 21.2842 89.1955 20.7932C89.2439 20.3059 89.2699 19.8111 89.2774 19.3126V19.3089C89.2848 19.056 89.2811 18.7993 89.2736 18.5426C89.2699 18.2971 89.255 18.0404 89.2402 17.7763V17.7651C89.1769 16.8686 89.0542 15.9609 88.8533 15.0384C88.6636 14.1567 88.4069 13.2602 88.0758 12.36L88.0721 12.3525C87.5029 10.5297 86.5357 8.93384 85.4495 7.56488C84.367 6.19592 83.1654 5.05016 82.1312 4.13132C81.7816 3.8672 81.4282 3.61796 81.0748 3.3836C76.6405 0.426199 71.6483 -0.537281 66.9722 0.277399C62.2962 1.0958 57.9364 3.69608 54.7744 7.87736C54.5177 8.2196 54.2647 8.573 54.0229 8.94128L53.8853 9.14588L50.4778 5.73836C49.9123 5.1692 49.3432 4.65956 48.6736 4.26896H48.6698C48.0002 3.87464 47.219 3.59564 46.2109 3.48404C41.9627 3.03764 39.4666 5.25848 37.4317 7.0664L37.3648 7.12592L11.042 33.4524C10.0042 34.6018 8.96628 35.6992 7.89492 36.7966C6.80124 37.9238 5.715 39.0063 4.57296 40.1484C4.38324 40.3381 4.15632 40.5576 3.91824 40.7845C2.1252 42.5068 -0.188644 44.7314 0.0122357 48.5407C0.205676 51.978 2.35212 53.9793 4.11168 55.6124C4.44276 55.9212 4.75896 56.2113 5.03424 56.4903C7.34436 58.7967 9.42012 60.8762 11.5033 63.19C12.6528 64.2242 13.7502 65.2621 14.8476 66.3334C15.9748 67.4308 17.0573 68.5134 18.1993 69.6554C19.3414 70.7974 20.9075 71.8688 22.7786 72.2668C24.2406 72.583 25.8923 72.4863 27.6742 71.694L27.689 71.6865C29.7239 70.9462 35.9698 64.4772 39.4256 60.8985C40.2031 60.0913 40.8392 59.4328 41.241 59.0311L54.912 45.3154C54.886 45.2299 54.8525 45.0364 54.8227 44.7909L54.819 44.7835V44.776L54.8153 44.7574V44.7537V44.7388L54.8116 44.724L54.8078 44.7054V44.6942V44.6868L54.8041 44.6719V44.6644V44.6533L54.8004 44.6347L54.7967 44.6161V44.6049V44.5975L54.793 44.5789V44.5714L54.7892 44.5603V44.5417L54.7855 44.5231V44.5082L54.7818 44.5045V44.4859V44.4784L54.7781 44.4673V44.4487V44.445L54.7744 44.4301V44.4115H54.7706V44.3892L54.7669 44.3817V44.3706V44.352L54.7632 44.3482V44.3334L54.7595 44.3148V44.2924L54.7558 44.2813V44.2738V44.2552L54.752 44.2478V44.2366L54.7483 44.2143V44.1957L54.7446 44.1808V44.1771L54.7409 44.1548V44.1511V44.1362L54.7372 44.1176V44.0953L54.7334 44.0841V44.0767V44.0581L54.7297 44.0506V44.0395L54.726 44.0172V43.9986L54.7223 43.9837V43.98V43.9576L54.7186 43.9502V43.939V43.9204V43.9167L54.7148 43.9018V43.8832V43.8795L54.7111 43.8609V43.8498V43.8423L54.7074 43.8237V43.82L54.7037 43.8051V43.7865V43.7828L54.7 43.7642V43.753V43.7456L54.6962 43.727V43.7233V43.7084L54.6925 43.6898V43.6712V43.66L54.6888 43.6526V43.634V43.6266L54.6851 43.6154V43.5968V43.5782L54.6814 43.567L35.289 62.7808C34.6603 63.4095 34.0316 64.0866 33.3918 64.7748C29.4412 69.0156 25.0702 73.7065 19.7766 69.0267C17.4442 67.0551 13.036 62.5874 9.66192 59.1724C8.7096 58.209 7.84656 57.331 7.06164 56.5461L7.05048 56.535C6.72684 56.1555 6.28416 55.7128 5.79312 55.2181C4.18236 53.5962 2.05452 51.4534 1.69368 49.2772C1.09848 45.7172 3.11844 43.6563 4.7664 41.9786C5.09004 41.6475 5.3988 41.3313 5.66664 41.03L5.67408 41.0188L37.3127 9.37652C37.5359 9.15704 37.7591 8.91896 37.9934 8.666C39.5558 6.98828 41.6614 4.72652 45.5488 4.93112H45.5525C48.283 5.12828 50.3401 7.364 52.029 9.19796C52.3898 9.59228 52.7358 9.96428 53.0706 10.3028L53.2752 10.4851C52.1927 11.9991 51.9918 13.6843 51.4896 15.4029C51.4896 15.4029 51.1622 15.4773 50.8126 15.5852H50.8088L50.7642 15.6001L50.7605 15.6038C50.4108 15.7303 49.8379 16.1172 49.8007 16.1432C49.3543 16.4892 48.9935 16.8946 48.7219 17.3373C48.2792 18.0553 48.0598 18.8662 48.0486 19.6846C48.0374 20.503 48.2346 21.3252 48.6252 22.0543C48.9935 22.7499 49.544 23.3637 50.2583 23.8027C52.3601 24.7587 54.1903 24.264 55.4068 23.1256C55.9871 22.5862 56.4298 21.9055 56.6976 21.1652C56.9654 20.4249 57.0659 19.6288 56.9543 18.8625C56.7274 17.3001 55.6262 15.8568 53.3422 15.2578L53.1562 15.2095L53.1934 15.0235C53.3087 14.4506 53.4798 13.874 53.6807 13.3532C53.8927 12.8026 54.1345 12.3153 54.38 11.9508L54.5214 11.735L54.6962 11.9284C55.7304 13.0742 57.5755 14.9193 59.4802 16.8277C61.3774 18.7212 63.3304 20.6742 64.6175 22.0803L64.6249 22.084C66.0385 23.453 67.028 24.409 67.4447 26.3397L67.4484 26.3509L67.4782 27.1321ZM51.2813 17.3894C51.2218 18.1966 51.218 19.082 51.2664 19.9525C51.3148 20.8676 51.4152 21.7716 51.5566 22.5676L51.6235 22.9396L51.2776 22.7834C50.6526 22.5081 50.1988 22.0245 49.9123 21.4516C49.678 20.9904 49.5589 20.4658 49.544 19.945C49.5329 19.428 49.6296 18.9072 49.8305 18.4496C50.0723 17.9139 50.4592 17.4601 50.9911 17.1922L51.311 17.036L51.2813 17.3894ZM53.1599 16.7086C54.1196 16.7086 54.8413 17.2629 55.2691 18.0404C55.4998 18.4608 55.6448 18.9481 55.6932 19.4503C55.7453 19.9525 55.6969 20.4658 55.5444 20.942C55.2431 21.872 54.5474 22.6569 53.3794 22.9062L53.1896 22.9471L53.145 22.7574C52.9478 21.9576 52.8437 21.0164 52.8139 20.0492C52.7804 18.9741 52.8362 17.8693 52.9627 16.8872L52.9813 16.7086H53.1599Z" fill="#010101"/>
</svg>
