<svg width="89" height="89" viewBox="0 0 89 89" fill="none" xmlns="http://www.w3.org/2000/svg">
<path fill-rule="evenodd" clip-rule="evenodd" d="M2.28813 82.5682H86.5932V86.469H1.73245V82.5682H2.28813ZM17.1737 50.6699V47.7222V43.9539H17.1774L17.1848 33.6315L17.3504 33.6426C17.5197 33.6499 17.6853 33.661 17.8435 33.6683L18.3145 33.6904C19.3045 33.7382 20.2429 33.7824 21.3763 33.959C22.7894 34.1762 24.1768 34.5552 25.347 34.8754L25.5016 34.9158L25.5531 34.9269C25.8843 35.0115 26.1971 35.1109 26.4915 35.2323C26.7859 35.3501 27.0656 35.4899 27.3232 35.6482C27.5808 35.8101 27.82 35.9904 28.0371 36.1965C28.2542 36.3989 28.4493 36.6234 28.6185 36.8736C28.7878 37.1202 28.935 37.3888 29.0528 37.6795C29.1705 37.9702 29.2625 38.283 29.3251 38.6216C29.3877 38.9565 29.4245 39.3134 29.4318 39.6962C29.4392 40.0789 29.4134 40.4874 29.3619 40.9179L29.292 41.4662L28.7437 41.4C27.2201 41.216 26.0278 40.9805 25.0931 40.7928H25.0857C24.2504 40.6272 23.6321 40.5021 23.2053 40.5021C23.0249 40.5021 22.8851 40.5426 22.7784 40.6419C22.6717 40.7376 22.5944 40.8995 22.5355 41.1387C22.4729 41.411 22.4361 41.7754 22.4141 42.2501C22.392 42.7248 22.3846 43.3173 22.3846 44.0422V80.8864H3.13085V70.0046H17.3393C17.5123 69.9715 17.6779 69.9274 17.8214 69.8722C17.9649 69.8206 18.0901 69.7581 18.1894 69.6882C18.2851 69.6182 18.3587 69.5446 18.4102 69.4563C18.4581 69.3717 18.4838 69.276 18.4838 69.1656C18.4838 69.0552 18.4581 68.9595 18.4102 68.8749C18.3587 68.7866 18.2851 68.7093 18.1894 68.643C18.0901 68.5731 17.9649 68.5106 17.8214 68.4554C17.6779 68.4038 17.5123 68.3597 17.3393 68.3229H3.13085V40.2518C3.13085 39.4422 3.22653 38.721 3.42157 38.0843C3.52093 37.7642 3.64605 37.4661 3.79325 37.1938C3.94045 36.9141 4.11341 36.6602 4.30845 36.4283C4.50717 36.1965 4.72797 35.9867 4.97453 35.799C5.22109 35.6114 5.48973 35.4458 5.78045 35.3022C6.06749 35.1624 6.38397 35.0446 6.71885 34.9453C7.05373 34.8496 7.41437 34.7723 7.79341 34.7171L8.40797 34.6325V34.695C8.40797 36.34 8.42637 37.9813 8.44477 39.6336C8.46685 41.676 8.48893 43.7294 8.47789 45.7608V53.7869C8.55885 54.199 8.62877 54.556 9.06669 54.6701C9.11821 54.6848 9.16973 54.6922 9.21757 54.6958C9.62237 54.7216 9.92413 54.3941 10.1081 54.0739V50.4638H15.4073V51.0195V51.0306V53.6691C15.411 53.6875 15.4147 53.7096 15.4147 53.728C15.4441 53.8973 15.4883 54.0445 15.5472 54.1622L15.5619 54.1954L15.584 54.2322L15.6061 54.2616L15.6281 54.2947C15.6576 54.3352 15.687 54.3683 15.7201 54.3978C15.7569 54.4309 15.7937 54.4603 15.8305 54.4824C15.871 54.5082 15.9115 54.5302 15.9557 54.545C15.9961 54.5634 16.044 54.5781 16.0881 54.5854C16.136 54.5965 16.1875 54.6038 16.239 54.6038C16.2905 54.6038 16.3421 54.6002 16.3973 54.5928C16.4488 54.5854 16.504 54.5707 16.5555 54.556C16.9934 54.4125 17.1112 53.9966 17.1737 53.5514V52.8043V52.7638V50.7398V50.6736V50.6699ZM39.136 68.6651V80.8864H32.4421V68.6099H39.136V68.6651ZM83.8001 80.8864H46.4003H44.7185H40.5933L40.6485 66.9355L30.8413 66.8509L30.7603 80.3307V80.8864H24.0664C24.0811 67.988 24.0664 55.0859 24.0664 42.1875C31.7981 43.505 39.5261 44.8445 47.2541 46.1546C47.3644 47.0304 47.4748 47.9062 47.5852 48.7821H49.1934V48.2301C49.1934 48.0718 49.1934 48.0093 49.1934 47.932V47.921C49.1934 47.8768 49.1934 47.8179 49.1971 47.5714H49.1934C49.1971 46.7581 49.1971 46.1509 49.1676 45.6982C49.1493 45.4848 49.1272 45.3118 49.0941 45.172C49.0609 45.0358 49.0205 44.9328 48.9616 44.8555C48.9174 44.793 48.8475 44.7378 48.7555 44.6936C48.6598 44.6421 48.5384 44.6016 48.3912 44.5611C48.2292 44.517 48.0379 44.4802 47.8134 44.4397C47.5816 44.3992 47.3277 44.3587 47.0369 44.3109L46.6211 44.2446L39.2832 43.056C36.4974 42.6034 33.7227 42.1544 31.0952 41.7275L31.0473 41.7202V39.2987C31.0473 38.5738 30.6646 37.617 30.6646 37.617C30.4843 37.26 30.3702 36.9362 30.2525 36.6123C30.12 36.3326 29.9654 36.0419 29.8035 35.8101C29.3325 35.1403 27.9193 34.0474 27.9193 34.0474L27.2238 33.7934C26.9552 33.6978 26.6902 33.6058 26.4253 33.5211C26.1566 33.4365 25.888 33.3555 25.6193 33.2819C25.3507 33.2083 25.0784 33.1384 24.8024 33.0722C24.5264 33.0096 24.2504 32.9507 23.967 32.8955C23.6837 32.8403 23.3966 32.7888 23.1133 32.7446C22.8225 32.6968 22.5318 32.6563 22.2374 32.6158C21.943 32.579 21.6449 32.5459 21.3358 32.5128C21.0304 32.4834 20.7176 32.4539 20.3937 32.4318L19.8785 32.3914C19.8785 24.7259 19.8785 16.9096 19.8785 10.1421V7.1944H39.136C39.136 8.1512 39.136 9.11168 39.136 10.0685L40.8177 9.77408V9.34352C40.8177 9.28096 40.8177 9.22208 40.8214 9.16688C40.8214 9.11904 40.8251 9.07488 40.8288 9.03808C40.8251 9.02704 40.8251 9.016 40.8214 9.00496C40.8214 8.99024 40.8177 8.97184 40.8177 8.95712V8.86144H40.8398C40.8251 8.83936 40.8214 8.81728 40.8214 8.79152C40.8214 7.86416 40.8214 7.17232 40.7773 6.66816C40.7589 6.42896 40.7257 6.24128 40.6816 6.0904C40.6411 5.94688 40.5822 5.84384 40.5086 5.77392C40.4424 5.70768 40.343 5.65616 40.2069 5.61936C40.0707 5.57888 39.8941 5.55312 39.6843 5.53472C39.4561 5.51632 39.1912 5.50528 38.8821 5.50528C38.5693 5.5016 38.2123 5.50528 37.8112 5.50528L36.7845 5.51264H28.0113C27.5366 5.51264 27.0619 5.50896 26.5982 5.5016C26.1456 5.49424 25.7077 5.48688 25.2918 5.47584C24.4675 5.45376 23.7278 5.428 23.0654 5.40224H23.0397C22.1785 5.3728 21.4573 5.34704 20.7875 5.34704C20.2355 5.34704 19.7976 5.36912 19.448 5.43536C19.1057 5.5016 18.8518 5.60832 18.6715 5.77392C18.4912 5.93952 18.3734 6.17504 18.2998 6.49152C18.2262 6.81536 18.1968 7.22752 18.1968 7.75008V12.4936H14.296V11.9379V6.15296C14.296 5.92112 14.2997 5.6856 14.3107 5.45376C14.3217 5.22192 14.3365 4.99376 14.3622 4.77664C14.388 4.55216 14.4248 4.33504 14.4726 4.12896C14.5241 3.9192 14.583 3.72048 14.6603 3.52912C14.7449 3.32304 14.848 3.128 14.9694 2.94768C15.0945 2.76736 15.2381 2.60544 15.4037 2.45824C15.5729 2.31472 15.7606 2.18592 15.9777 2.08288C16.1949 1.97616 16.4377 1.89152 16.7101 1.82896C17.0339 1.74064 18.0937 1.68176 19.5952 1.64128C21.0929 1.6008 23.0323 1.57872 25.1225 1.57136C29.303 1.55296 34.0797 1.5824 37.1009 1.6008C37.1157 1.6008 37.1341 1.6008 37.1451 1.6008C38.1718 1.60816 38.9483 1.61184 39.7763 1.61184C40.8693 1.61184 41.7966 1.61184 42.5731 1.84736C43.3569 2.08656 43.9825 2.56128 44.4573 3.5144C44.4683 3.52912 44.472 3.54016 44.4757 3.5512L44.4904 3.588C44.6633 4.1032 44.7333 4.88704 44.7553 5.72608C44.7811 6.55776 44.7553 7.44464 44.7369 8.1696V8.17328C44.7333 8.3536 44.7259 8.52288 44.7222 8.68112L44.7185 8.9056V9.1448V9.77408L47.3976 10.4843C47.07 10.3518 46.7462 10.223 46.4297 10.0979L46.404 9.7888C46.3672 9.34352 46.3561 8.89456 46.3598 8.44928C46.3635 8.004 46.3782 7.55872 46.3966 7.11712V7.11344C46.4113 6.74912 46.4224 6.38848 46.4297 6.03152C46.4334 5.67824 46.4334 5.32496 46.415 4.97536C46.3929 4.62944 46.3598 4.29088 46.3009 3.956C46.2421 3.6248 46.1611 3.29728 46.047 2.9808C45.955 2.7968 45.852 2.62016 45.7416 2.45088C45.6349 2.27792 45.5134 2.116 45.3883 1.96144C45.2632 1.8032 45.1307 1.656 44.9909 1.51248C44.851 1.37264 44.7038 1.24016 44.5529 1.11872C44.4021 1.00096 44.2438 0.88688 44.0782 0.78384C43.9163 0.6808 43.7507 0.5888 43.5741 0.50416C43.4011 0.4232 43.2245 0.3496 43.0441 0.28336C42.8675 0.2208 42.6835 0.16928 42.4958 0.12512L40.3761 0H19.5363C16.515 0.17296 14.767 0.15824 13.5342 2.17488C13.1699 2.76736 12.9344 3.45552 12.7835 4.2136C12.6326 4.9864 12.5664 5.82912 12.5443 6.716C12.5259 7.60656 12.5517 8.54128 12.5737 9.4944V9.50912C12.743 15.9565 12.6142 24.8106 12.6142 32.3766L12.1174 32.4282C9.33901 32.7189 7.26349 33.1605 5.71421 33.7934C4.17597 34.4227 3.16029 35.247 2.50157 36.2958C1.84285 37.352 1.53005 38.6474 1.40125 40.2224C1.26509 41.8048 1.31661 43.6632 1.37181 45.8418V45.8565C1.40861 47.288 1.44909 48.8446 1.44909 50.4234V80.3638L1.28717 80.5258C1.22461 80.5883 1.16205 80.6435 1.10317 80.6987C1.04061 80.7502 0.981732 80.7981 0.922852 80.8459C0.863972 80.8901 0.808772 80.9306 0.753572 80.971C0.705732 81.0078 0.650532 81.0446 0.599012 81.0814L0.595332 81.0851C0.429732 81.1992 0.293572 81.2949 0.201572 81.4642C0.105892 81.6371 0.0543717 81.891 0.0543717 82.3253C0.0543717 82.3363 0.0506916 82.3437 0.0506916 82.351V82.3547C0.0138916 83.6574 -0.00818827 84.6805 0.00285173 85.479C0.0102117 86.2739 0.0543716 86.848 0.150052 87.2565C0.238372 87.6282 0.370852 87.8526 0.569572 87.9851C0.768292 88.1213 1.04061 88.1654 1.39757 88.1765C1.68093 88.1838 2.00845 88.1765 2.38749 88.1691H2.40589C2.77757 88.1618 3.18237 88.1507 3.48413 88.1507C13.5121 88.1507 22.2227 88.1323 30.9296 88.1102H31.1283C40.4681 88.0882 49.8153 88.0661 58.7467 88.0661C63.332 88.0661 67.9099 88.0698 72.4768 88.0845C77.0252 88.0992 81.5627 88.1213 86.0817 88.1544V88.1507H86.2363C86.711 88.1507 87.079 88.1176 87.3661 88.044C87.6457 87.9741 87.8444 87.871 87.9843 87.7312C88.1204 87.595 88.2051 87.4184 88.2529 87.205C88.3045 86.9842 88.3192 86.7192 88.3192 86.4138C88.3192 86.101 88.3118 85.8434 88.3008 85.5674V85.5563C88.2897 85.1515 88.275 84.7099 88.275 84.3198C88.275 84.1211 88.2787 83.9077 88.2824 83.6906C88.2897 83.4771 88.2934 83.2674 88.3008 83.0686V83.0576C88.3081 82.8037 88.3155 82.5755 88.3155 82.2848C88.3155 82.0014 88.3008 81.7733 88.2492 81.5893C88.1977 81.4163 88.1131 81.2802 87.9733 81.1808C87.8224 81.0778 87.6016 81.0042 87.2888 80.9563C86.976 80.9085 86.5748 80.8864 86.0633 80.8864H86.0376H85.4819H83.8001ZM10.6638 42.0882H15.4073V48.7821H10.1081V48.7269C10.1118 47.2549 10.1081 45.7792 10.1081 44.3072V42.0882H10.6638ZM15.4073 34.2718V40.4101H10.1081V34.1651C11.8745 33.9958 13.6409 33.8266 15.4073 33.661V34.2718ZM14.8517 25.3405H18.1968V32.0344H14.296V25.3405H14.8517ZM14.8517 14.1754H18.1968C18.2005 17.3365 18.1968 20.4976 18.1968 23.6587H14.296V14.1754H14.8517Z" fill="#010101"/>
<path fill-rule="evenodd" clip-rule="evenodd" d="M47.3976 10.4847L44.7185 9.77441C43.4195 9.86641 42.1168 9.74497 40.8177 9.84065V9.77441L39.136 10.0688C34.9297 11.9199 33.3989 12.4314 30.3923 16.4536C30.2377 16.6597 30.0869 16.8695 29.936 17.0939C29.7888 17.3147 29.6416 17.5429 29.5017 17.7784C29.1043 18.6395 28.8136 19.4859 28.5965 20.325C28.3793 21.1677 28.2395 22.0031 28.1512 22.8458C28.0592 23.6885 28.0224 24.5386 28.0113 25.3997C28.0003 26.2608 28.015 27.1367 28.0334 28.0346V28.0567C28.0629 29.7163 28.0923 31.4496 27.9672 33.3117L27.9193 34.0477C27.9193 34.0477 29.3325 35.1407 29.8035 35.8104C29.9654 36.0423 30.12 36.333 30.2525 36.6127C30.1089 36.2189 29.9617 35.8288 29.7005 35.4019C29.6085 35.2584 29.6489 35.056 29.6489 34.8683V28.1303H30.2046H55.8873C55.8873 31.2951 55.8873 34.4562 55.8873 37.6173H30.6646C30.6646 37.6173 31.0473 38.5741 31.0473 39.2991H55.8837L55.8873 42.4087C55.8873 44.5136 55.8873 46.6223 55.8837 48.7272V48.7824H55.3317H50.3821H49.1934H47.5853H47.2688H46.956C46.8309 48.7824 46.7941 48.7824 46.7462 48.7824H46.7425C46.7131 48.7824 46.6653 48.7824 46.4776 48.7824C43.8501 48.7714 41.9291 48.7677 41.9291 51.6197C41.9291 51.9693 41.9144 52.4219 41.9033 52.8599V52.8856C41.8886 53.4818 41.8739 54.0411 41.8997 54.5563C41.9254 55.0642 41.9917 55.5242 42.1389 55.9216C42.2824 56.3043 42.5032 56.6355 42.8417 56.8931C43.1803 57.1544 43.6403 57.3458 44.2585 57.4525L44.7185 57.5335V58.0008V80.8867H46.4003V76.8719H78.4605C78.6297 76.8719 78.7806 76.8608 78.9168 76.8351C79.0603 76.8093 79.1854 76.7725 79.2958 76.7247C79.34 76.7063 79.3878 76.6879 79.432 76.6695C79.5939 76.6069 79.708 76.5591 79.7705 76.445C79.7853 76.4229 79.7963 76.3971 79.8037 76.3751C79.8147 76.3493 79.8221 76.3235 79.8294 76.2978C79.8368 76.272 79.8405 76.2499 79.8441 76.2242C79.8478 76.1984 79.8515 76.1727 79.8515 76.1432C79.8515 76.1175 79.8478 76.0917 79.8441 76.0659C79.8405 76.0402 79.8368 76.0144 79.8294 75.9887C79.8221 75.9666 79.8147 75.9408 79.8037 75.9151C79.7963 75.893 79.7853 75.8672 79.7705 75.8451C79.7301 75.7715 79.6712 75.7127 79.5939 75.6611C79.5129 75.6059 79.4136 75.5581 79.2958 75.5103C79.1854 75.4624 79.0603 75.4256 78.9168 75.3999C78.7806 75.3741 78.6297 75.3594 78.4605 75.3594H46.4003V57.4451H46.956H83.8001C83.8038 61.3533 83.8038 65.2578 83.8038 69.1659C83.8038 73.0741 83.8038 76.9786 83.8001 80.8867H85.4819V57.5077L85.9713 57.4488C86.148 57.4267 86.3136 57.3973 86.4681 57.3605C86.619 57.3237 86.7662 57.2795 86.9024 57.2243C87.0349 57.1728 87.16 57.1103 87.2777 57.044C87.3918 56.9741 87.4949 56.9005 87.5905 56.8159C87.6789 56.7312 87.7635 56.6429 87.8371 56.5399C87.9144 56.4405 87.9806 56.3301 88.0358 56.2123C88.0947 56.0946 88.1425 55.9621 88.183 55.8223C88.2235 55.6824 88.2529 55.5352 88.275 55.377C88.275 55.1525 88.275 54.7551 88.2713 54.3392C88.2677 53.8903 88.264 53.364 88.2529 52.8525C88.2419 52.341 88.2235 51.8368 88.2014 51.4283C88.1757 51.0235 88.1462 50.7181 88.1057 50.5967L88.0947 50.5635C87.9622 50.0594 87.712 49.6877 87.3734 49.4154C87.0312 49.1394 86.5969 48.9627 86.1001 48.856C85.5813 48.7419 84.9961 48.6978 84.3705 48.6867C83.7413 48.6794 83.0678 48.7051 82.3833 48.7309H82.3723C82.0485 48.7456 81.7209 48.7567 81.3934 48.7677C81.0659 48.7787 80.7494 48.7824 80.455 48.7824H79.8993C79.8993 48.4218 79.8993 48.0611 79.903 47.6968C79.9141 45.2607 79.9214 43.5053 77.592 43.1925L77.1099 43.1299V42.6442C77.1099 42.0701 77.132 41.301 77.1577 40.473V40.4656C77.2093 38.8795 77.2645 37.0506 77.1614 35.3983C77.0584 33.7496 76.7971 32.2739 76.2046 31.3871C75.7814 30.8167 75.303 30.3898 74.7768 30.0733C74.2469 29.7568 73.6654 29.5507 73.0325 29.4183C72.3921 29.2821 71.7003 29.2232 70.9606 29.2011C70.2173 29.1791 69.4261 29.1975 68.587 29.2159H68.5649C67.6707 29.2343 59.4937 29.2711 58.9896 29.2563H58.9822C58.8166 29.2527 58.6694 29.249 58.5259 29.2453C58.3934 29.2453 58.2609 29.2416 58.1211 29.2416H57.5654V28.6859C57.5654 27.7917 57.5654 26.9416 57.547 26.1394C57.5323 25.3298 57.4992 24.5533 57.444 23.8063C57.3925 23.0629 57.3115 22.349 57.1974 21.6608C57.0833 20.9763 56.9361 20.3139 56.7448 19.6736C56.5534 19.0407 56.3142 18.4224 56.0235 17.8226C54.2792 13.6274 50.647 11.7984 47.3976 10.4847ZM57.1496 61.5447H50.3085V71.2267H57.1496V61.5447ZM79.8552 61.5447H73.0141V71.2267H79.8552V61.5447ZM74.4529 62.829H78.5709V69.9461H74.2984V62.829H74.4529ZM68.5024 61.5447H61.6613V71.2267H68.5024V61.5447ZM63.1001 62.829H67.2181V66.3875V69.9461H62.9456V62.829H63.1001ZM51.7473 62.829H55.8653V69.9461H51.5928V66.3875V62.829H51.7473ZM44.4241 50.3906H85.7174C85.8205 50.3906 85.9235 50.4127 86.0155 50.4495C86.1075 50.4899 86.1958 50.5488 86.2657 50.6187C86.3393 50.6923 86.3982 50.777 86.435 50.8727C86.4755 50.9647 86.4939 51.064 86.4939 51.1707V55.0053C86.4939 55.112 86.4755 55.2114 86.435 55.3034C86.3982 55.3991 86.3393 55.4837 86.2657 55.5573C86.1958 55.6272 86.1112 55.6861 86.0155 55.7266C85.9235 55.7634 85.8205 55.7855 85.7174 55.7855H44.4241C44.3174 55.7855 44.2181 55.7634 44.1261 55.7266C44.0304 55.6861 43.9457 55.6272 43.8721 55.5573C43.8022 55.4837 43.7433 55.3991 43.7029 55.3034C43.6661 55.2114 43.644 55.112 43.644 55.0053V51.1707C43.644 51.064 43.6661 50.9647 43.7029 50.8727C43.7433 50.777 43.8022 50.6923 43.8721 50.6187C43.9457 50.5488 44.0304 50.4899 44.1261 50.4495C44.2181 50.4127 44.3174 50.3906 44.4241 50.3906ZM69.2899 44.8816H78.2176C78.2213 46.1807 78.2176 47.4834 78.2176 48.7824H68.7342V44.8816H69.2899ZM58.1211 36.5059C58.8277 36.5059 67.3358 36.4323 68.3331 36.4839C68.5981 36.4986 68.9109 36.5059 69.2899 36.5059H69.8456V43.1336L69.3561 43.1962C68.1675 43.3434 67.5824 43.8843 67.299 44.6424C67.012 45.4115 67.0267 46.4051 67.0414 47.4392V47.5202C67.0488 47.8219 67.0525 48.1163 67.0525 48.2304V48.7824H57.5654V36.5059H58.1211ZM66.4968 30.9234C66.7029 30.9234 66.8795 30.9234 67.0377 30.9197C67.207 30.9197 67.3726 30.916 67.5272 30.9123C67.8437 30.9087 68.1491 30.9013 68.4509 30.8903H68.4913C69.1133 30.8755 69.7057 30.8571 70.1621 30.8571H70.3203V30.8608C71.0379 30.8645 71.704 30.8976 72.3038 30.9933C72.9221 31.089 73.4667 31.2472 73.923 31.5085C74.3977 31.7808 74.7768 32.1562 75.0344 32.6714C75.2883 33.1866 75.4281 33.8416 75.4281 34.6696V43.1999H71.5237V42.6442C71.5237 42.0922 71.531 41.5218 71.5384 40.9698C71.5421 40.4251 71.5531 39.9026 71.5605 39.4242V39.4131C71.5715 38.7986 71.5789 38.2613 71.5825 37.7903C71.5825 37.3192 71.5789 36.9144 71.5605 36.5685C71.5421 36.2373 71.5126 35.9613 71.4648 35.7331C71.4206 35.5123 71.3544 35.3431 71.2734 35.2179C71.1998 35.1075 71.0931 35.0266 70.9496 34.9677C70.8024 34.9015 70.611 34.861 70.3755 34.8352C70.1253 34.8058 69.8235 34.7947 69.4665 34.7911C69.1096 34.7911 68.6974 34.7984 68.2227 34.8058H68.219C67.6523 34.8168 67.012 34.8242 66.4968 34.8242H65.9411V30.9234H66.4968ZM58.1211 30.9234H64.2593V34.8242H57.5654V30.9234H58.1211ZM29.6489 25.8965C29.6489 25.3114 29.6637 24.752 29.6931 24.2184C29.7189 23.6848 29.763 23.1733 29.8219 22.6875C29.8808 22.2018 29.9581 21.7344 30.0537 21.2855C30.1494 20.8365 30.2672 20.4059 30.4033 19.9901C30.5395 19.5706 30.6977 19.1658 30.8817 18.7757C32.0373 16.2991 34.6169 13.7819 37.0457 12.6117C37.4358 12.4203 37.848 12.2511 38.2785 12.1002C38.7128 11.9493 39.1654 11.8168 39.6401 11.7138C40.1149 11.6071 40.6117 11.5224 41.1342 11.4672C41.6568 11.412 42.1977 11.3826 42.7681 11.3826C43.3385 11.3826 43.8832 11.4157 44.4057 11.4783C44.9283 11.5371 45.4288 11.6291 45.9072 11.7432C46.3856 11.861 46.8419 12.0008 47.2761 12.1664C49.5357 13.0091 51.8982 14.816 53.3997 16.7002C53.6646 17.0314 53.9038 17.3736 54.1209 17.7269C54.3381 18.0802 54.5331 18.4482 54.7061 18.8309C54.879 19.2099 55.0299 19.6074 55.1624 20.0195L55.2065 20.1704C55.3206 20.5495 55.42 20.9432 55.5046 21.3517C55.5893 21.7823 55.6629 22.2275 55.7181 22.6949C55.7769 23.1807 55.8174 23.6885 55.8469 24.2221C55.8726 24.7557 55.8873 25.3114 55.8873 25.8965V26.4522H29.6489V25.8965Z" fill="#1D8F80"/>
<path fill-rule="evenodd" clip-rule="evenodd" d="M30.5358 61.2832C30.1678 61.6954 30.0648 62.4387 30.5984 62.976H41.0422C41.4102 62.5638 41.5133 61.8242 40.9797 61.2832H30.5358Z" fill="black"/>
</svg>
