<svg width="74" height="89" viewBox="0 0 74 89" fill="none" xmlns="http://www.w3.org/2000/svg">
<path fill-rule="evenodd" clip-rule="evenodd" d="M24.3322 54.1692C23.7949 53.9594 22.9632 53.8895 21.8666 54.0257C21.0349 54.1913 20.321 54.4746 19.7211 54.8169C19.0219 55.2143 18.481 55.6964 18.0946 56.1785L18.0872 56.1858C17.7045 56.5722 17.5904 56.9034 17.675 57.1684C17.7376 57.3745 17.9216 57.5511 18.1939 57.6873C18.4773 57.8271 18.8526 57.9228 19.2869 57.9633C20.8435 58.1105 23.1141 57.5474 24.5088 55.8694L24.5162 55.862C24.7848 55.5934 24.9431 55.3358 24.9946 55.1039C25.0387 54.9089 25.0056 54.7286 24.8989 54.574C24.7885 54.4121 24.5971 54.2759 24.3322 54.1692ZM54.2874 33.6127C53.8274 34.1831 53.5146 35.2025 53.5146 36.5935C53.5146 36.8401 53.5256 37.1014 53.544 37.3663C53.6397 38.5807 53.9451 39.9718 54.4787 41.0537C55.005 42.1172 55.7483 42.8863 56.7235 42.8863C56.7566 42.8863 56.7898 42.8826 56.8229 42.8826C57.1688 42.3049 57.3823 40.7519 57.419 39.129C57.4558 37.5282 57.3197 35.8686 56.9701 34.989C56.6058 34.0506 56.1568 33.4839 55.7005 33.241C55.4502 33.1086 55.2 33.0754 54.9608 33.138C54.7216 33.2006 54.4898 33.3625 54.2874 33.6127ZM48.6496 31.9862C47.8878 31.861 47.1261 31.7359 46.46 31.585C45.2419 31.3385 43.8656 31.0956 42.4893 30.8564C41.8269 30.7386 41.1608 30.6209 40.4395 30.4884H40.4322C40.193 30.4185 39.9832 30.3706 39.7992 30.3265C38.9786 30.1314 38.64 30.0505 38.1763 28.9722L38.1726 28.9612V28.9538C38.0733 28.5527 37.8598 27.9308 37.628 27.3898C37.4514 26.9777 37.2674 26.617 37.1165 26.4588C36.8994 26.3594 36.2002 26.2049 35.5304 26.0577C34.9895 25.9399 34.4706 25.8222 34.224 25.7412H34.2203C33.8707 25.6124 33.5616 25.513 33.304 25.4247C32.0307 25.0052 31.8246 24.9353 32.1522 23.7945L32.1706 23.7356L32.2294 23.7246C32.9102 23.5884 33.6683 23.8828 34.4779 24.1956C35.88 24.7402 37.4477 25.3474 38.9234 23.7577L38.9602 23.7098C40.0163 22.3372 40.5426 19.4263 40.5205 16.6222C40.4947 13.829 39.9243 11.1537 38.7835 10.241C38.7725 10.23 38.7578 10.219 38.7467 10.2079C38.6216 10.0828 37.709 9.74424 36.616 9.36888C34.9122 8.78376 32.7888 8.12872 32.4686 8.05512L32.1632 8.39C31.3499 9.26952 30.9746 9.678 30.5624 10.0534C30.2091 10.3772 29.8411 10.6716 29.153 11.2162C28.8438 11.4591 28.4758 11.7535 28.1152 12.0406L28.1115 12.0442C25.2742 14.1713 25.4214 14.8962 25.944 17.5127L25.9624 17.5974C26.0544 18.0095 26.22 18.7087 26.4261 19.5735C27.3461 23.4743 29.0646 30.7607 29.0646 31.6697V31.7175C25.3405 34.5842 21.6163 37.4546 17.8958 40.325C16.5379 41.3186 15.6842 42.1282 15.2131 43.1145C14.7421 44.1007 14.6538 45.271 14.8341 46.9822C14.9445 48.0788 15.3162 50.3567 15.8718 52.1599C16.2288 53.3118 16.6557 54.2612 17.1304 54.5556C17.2629 54.5335 17.5278 54.3495 17.8811 54.1066C18.4147 53.7386 19.1397 53.2382 19.9898 52.9217L19.9934 52.918C20.527 52.7414 21.3109 52.6494 22.0616 52.561C22.8307 52.4727 23.5704 52.3844 23.9494 52.2151C24.0414 51.7183 24.0819 50.8793 24.0451 50.0991C24.012 49.433 23.9274 48.8148 23.7654 48.4983C23.5814 48.1303 23.3091 47.582 23.0994 47.0042C22.8896 46.4191 22.7498 45.8082 22.8454 45.3335L22.8602 45.2636L22.9301 45.2526C23.9752 45.1017 24.0046 45.179 24.38 46.1578C24.4904 46.4486 24.6376 46.8239 24.8584 47.317L24.8621 47.3207C24.9725 47.5783 25.0755 47.7991 25.1675 47.9978C25.5466 48.8074 25.7821 49.3116 25.7821 50.6438V50.6511C25.6901 51.641 25.6901 52.5353 26.0691 53.3118C26.4445 54.0882 27.2026 54.7543 28.6341 55.2916L28.6378 55.2953C30.4373 56.0129 32.0123 56.0129 33.4291 55.5639C34.8459 55.115 36.1118 54.2097 37.2858 53.1278C37.7568 52.653 37.9813 52.2298 38.191 51.8324C38.3898 51.4607 38.5738 51.1074 38.927 50.7542L38.9491 50.7321L38.9786 50.7284C39.2766 50.6658 39.7477 50.9713 40.4101 51.3982C42.0403 52.447 44.8776 54.2686 48.6349 53.102C48.8925 52.999 49.2016 52.8334 49.5218 52.6604C50.3387 52.2188 51.2514 51.7294 51.8144 52.0127L51.8328 52.0201L51.8439 52.0311C52.0021 52.1894 52.0683 52.366 52.0573 52.5537C52.0426 52.8407 51.8328 53.1462 51.4759 53.4332C51.1299 53.7092 50.6442 53.9742 50.0517 54.1986C48.2043 54.8978 45.3266 55.207 42.6144 54.2023H42.6107C42.2906 54.0735 41.8968 53.9006 41.4957 53.7202C40.7781 53.4001 40.02 53.0615 39.5526 52.9364C39.4202 52.999 39.2656 53.1903 39.0522 53.459C38.5002 54.1471 37.5691 55.31 35.3942 56.2079C33.1752 57.2567 31.6958 57.2714 30.5845 57.2825C29.9773 57.2898 29.4805 57.2935 29.0389 57.4702C28.8438 57.9375 28.8254 59.623 28.8034 61.2495C28.7886 62.383 28.7739 63.4906 28.7003 64.1567C28.1704 68.374 26.0728 71.675 24.4168 74.2804C23.2208 76.1609 22.2603 77.677 22.3118 78.8804C22.6394 79.2042 22.8197 79.3698 23.4931 79.3698H55.2368C56.2893 79.3698 56.5874 78.8914 56.5874 78.2033C56.5874 77.7359 56.4549 77.1729 56.3224 76.5878C56.293 76.4737 56.2672 76.3596 56.2341 76.2124C55.8219 74.7073 55.3914 73.6327 55.0086 72.6796C54.0445 70.2655 53.3895 68.6206 54.0445 62.8577V62.8503C54.177 62.0076 54.4088 60.6644 54.6848 59.0636C55.5643 53.9742 56.8891 46.3161 56.7824 44.6822C56.5285 44.546 56.2599 44.4466 55.9839 44.3436C54.8615 43.9351 53.6066 43.4751 52.5872 40.2735C51.7261 37.3994 51.9837 36.3212 52.3149 34.9338C52.4069 34.5474 52.5026 34.139 52.5835 33.6679V33.3183C52.451 32.6081 50.5632 32.299 48.6496 31.9862ZM24.9982 22.4991L25.0571 22.4697C25.3405 21.8294 24.9688 20.1991 24.6155 18.6388C24.3616 17.5385 24.1187 16.4713 24.1187 15.7942C24.0194 13.0783 26.415 11.2604 28.4354 9.72952C29.9699 8.56296 31.2837 7.56936 31.0555 6.50952L31.0518 6.49848V6.49112C31.0518 6.39912 30.6434 5.72568 30.2275 5.12584C29.9184 4.67688 29.6056 4.27576 29.4658 4.20584L29.4474 4.19848L29.4326 4.18008C29.083 3.74216 28.6856 3.4772 28.2035 3.32264C27.7141 3.16808 27.1326 3.12392 26.4114 3.12392C25.1565 3.21592 24.1702 3.61704 23.3643 4.15432C22.5547 4.69528 21.9218 5.37608 21.3771 6.00536L21.3734 6.01272C20.5675 6.81864 20.1186 7.80488 19.9419 8.90152C19.7616 10.0055 19.8499 11.2236 20.1222 12.4895V12.4969C20.2694 13.4463 20.1296 14.278 19.9824 15.1318C19.7653 16.4087 19.5371 17.7372 20.2989 19.5882C20.3173 19.6287 20.3357 19.6729 20.3578 19.7134C20.6742 20.3463 21.4139 21.2258 22.2934 21.8588C23.1619 22.4807 24.1592 22.8561 24.9982 22.4991ZM41.9152 14.8226C42.0367 15.6028 42.1323 16.2174 42.3421 16.6038C42.8021 16.5854 43.2179 16.313 43.5675 15.8714C43.9024 15.4446 44.1784 14.8594 44.3661 14.186C44.5574 13.5089 44.6642 12.7434 44.6642 11.9559C44.6642 10.0865 44.068 8.10664 42.5923 6.9364C42.3863 6.80024 42.0661 6.6604 41.7239 6.50952C41.1682 6.26664 40.5536 5.99432 40.204 5.6484C39.8802 5.32456 39.6226 4.87928 39.3539 4.41928C39.1626 4.09176 38.9675 3.7532 38.7394 3.45144C38.2021 2.82216 37.617 2.19288 36.8368 1.81384C36.0567 1.4348 35.0778 1.30232 33.7382 1.65928C31.3094 2.50568 31.0187 3.32632 31.2506 3.9924C31.3499 4.27944 31.545 4.5444 31.7142 4.77256C31.8173 4.91608 31.9093 5.04488 31.9682 5.15896C33.2709 7.0652 35.0447 7.46632 36.6896 7.83432C38.4928 8.2428 40.1451 8.61816 40.9179 10.8335C41.5362 12.3791 41.7496 13.7518 41.9152 14.8226ZM40.1966 24.593C39.8544 25.0273 39.4459 25.3474 38.9086 25.7044C38.835 26.227 38.9675 26.9078 39.1994 27.5113C39.4423 28.1332 39.7918 28.6631 40.1341 28.8398C40.6714 29.0532 44.2152 29.7156 47.3138 30.297C49.4482 30.6945 51.3728 31.0551 51.9726 31.206C52.6387 31.3201 53.2496 31.39 53.8126 31.4489C55.9213 31.6807 57.3712 31.8353 58.2507 34.1868L58.2544 34.1978C58.5083 35.6588 58.7439 37.1308 58.9867 38.5991C58.88 39.9129 58.8322 41.7492 58.6224 42.993C58.2544 45.7383 57.8901 48.4358 57.5037 51.1369C57.1173 53.8454 56.7051 56.5796 56.2488 59.4169V59.4206C56.1863 59.7518 56.1274 60.0498 56.0722 60.3442C55.5938 62.8503 55.1743 65.0326 55.3362 67.7852C55.465 69.5516 56.0317 71.2334 56.6058 72.9482C56.8634 73.7063 57.121 74.4718 57.3418 75.2482C58.1735 77.839 58.3059 79.2778 57.5221 80.0874C56.7456 80.8897 55.0822 81.0295 52.3186 81.0295L45.3854 80.8492C41.6208 80.9044 38.1027 80.9302 34.6031 80.9118L33.3445 80.9302L32.1669 80.8897C28.9285 80.8566 25.6643 80.783 22.1941 80.6652L22.1794 80.6578C20.5675 80.0396 20.4608 78.8068 21.0827 77.195C21.5538 75.9732 22.4443 74.5306 23.4158 72.9666C25.024 70.3686 26.8419 67.4356 27.2246 64.6793C27.313 63.7703 27.3571 62.5449 27.3571 61.2937C27.3571 60.0388 27.313 58.7655 27.2246 57.7682L27.221 57.7572C27.221 57.3156 27.221 57.047 27.14 56.863C27.0627 56.69 26.9008 56.5686 26.5806 56.4066C26.3525 56.4692 26.0581 56.7378 25.668 57.0874C24.5898 58.0553 22.8418 59.6303 19.6586 59.5015C16.6115 59.5015 16.181 58.0001 15.4192 55.3505C15.2941 54.9162 15.1579 54.4526 15.0034 53.9558C14.6354 52.7671 14.2269 51.3503 13.8846 49.8894C13.5387 48.4247 13.2664 46.9159 13.1744 45.5396V45.5322C13.1744 41.9737 15.0549 40.4722 16.8397 39.0481L17.0421 38.8862C18.319 37.8852 19.7322 36.8364 21.1968 35.7839C22.6578 34.7351 24.1629 33.6863 25.6202 32.6854C25.7563 32.5639 25.8814 32.4646 25.9955 32.3689C26.8493 31.655 27.2394 31.3274 27.2872 30.7202C27.3277 30.194 27.1216 29.4286 26.7462 28.0265C26.5733 27.3862 26.3672 26.617 26.1317 25.6713C25.76 24.3134 25.392 24.2692 24.5272 24.1735C24.1518 24.133 23.6882 24.0815 23.0994 23.9196H23.0957C20.689 23.1762 19.3936 21.6932 18.768 19.8385C18.1461 17.9985 18.1902 15.7942 18.4662 13.5935V13.5862C18.5472 13.185 18.5067 12.6036 18.4626 11.9081C18.3043 9.46824 18.0541 5.65576 22.3413 2.93992C24.5824 1.52312 26.8125 1.76232 28.3765 1.92792C29.2339 2.01992 29.8816 2.08984 30.1797 1.85064L30.187 1.84328L30.1944 1.8396C30.3821 1.74024 30.544 1.64824 30.7096 1.55992C32.9139 0.352882 35.0263 -0.802638 37.9519 0.746642C39.0595 1.29864 39.7955 2.21864 40.5315 3.13496L40.5352 3.14232L40.5426 3.15336C41.3301 4.38984 41.5472 4.49288 41.9962 4.70632C42.2759 4.84248 42.6402 5.01912 43.2584 5.49752C43.8104 5.906 44.2741 6.3844 44.6605 6.90696C45.7755 8.43048 46.2208 10.3625 46.1656 12.2025C46.1141 14.0425 45.5658 15.7978 44.6973 16.9718C44.4323 17.3324 44.1343 17.6378 43.8104 17.877C43.5086 18.1751 42.8794 18.4622 42.4451 18.6646C42.3384 18.7124 42.2427 18.7566 42.1728 18.7897C41.9851 19.0988 41.7901 19.9746 41.5987 20.8542C41.4331 21.6012 41.2675 22.3482 41.0983 22.7641C40.8223 23.5958 40.5426 24.1514 40.1966 24.593Z" fill="#010101"/>
<path fill-rule="evenodd" clip-rule="evenodd" d="M59.4136 82.8809H60.7163H62.0411H62.365V82.0345V80.2202V80.1614C62.3686 79.5615 62.3723 78.601 62.3834 77.4529C62.4018 74.9063 62.4275 71.4287 62.4018 68.665C62.4018 66.7809 62.4018 64.8967 62.4018 63.0126C61.2941 65.1801 58.9462 66.6668 57.1835 67.6751C56.3629 68.2234 55.4466 68.6798 54.464 69.0919C49.22 71.2852 42.3973 72.4223 36.9067 72.4223C32.7998 72.4223 28.2698 71.8998 24.023 70.7111C20.9466 69.85 18.0173 68.6393 15.5038 67.0238C14.1496 65.8793 12.1808 64.9666 11.4411 63.0972L11.489 82.7999V82.8809H14.5912V88.2058C14.5654 88.2242 14.5397 88.2426 14.5139 88.2647H0V87.3668V84.4154V84.1026V82.8809H2.73056L2.74528 55.774C2.74528 53.4482 2.84096 52.186 3.27152 51.4095C4.5264 49.161 7.24592 48.9476 9.33616 49.8087C11.7944 51.1078 11.8091 53.4335 11.765 56.1898C11.7539 56.9406 11.7429 57.7207 11.7834 58.5082C11.7834 60.0906 12.4237 61.4302 13.3474 62.5562C16.2803 66.1516 21.8077 68.5399 26.1501 69.5041C30.1282 70.3873 34.592 70.8657 37.0907 70.8657C40.9474 70.8657 44.6678 70.402 48.0608 69.4967C55.0528 67.6383 62.6115 63.8405 62.2435 55.5421C62.3466 53.2495 61.9822 51.9358 63.4616 50.4086C65.423 48.4434 69.1435 48.8262 70.3322 51.3727C70.943 52.5945 70.921 53.8126 70.8952 55.1374C70.8915 55.4023 70.8842 55.6673 70.8842 55.9543C70.8842 64.9298 70.8179 73.9054 70.8179 82.8809H71.035C71.3552 82.8809 71.5502 82.8809 72.1133 82.8809H72.128H73.0701C73.2798 82.8809 73.7141 82.8846 74.0048 82.8919V84.1026V87.3668V88.261C73.9827 88.2831 73.957 88.3015 73.9275 88.3199H59.4136V87.3668H59.4062V84.1026H59.4136V82.8809ZM72.4666 84.4706V86.7375H60.9445V84.4706H72.4666ZM13.0198 84.4154V86.6786H1.53824V84.4154H13.0198ZM9.89552 59.9692V59.9545C9.89552 59.822 9.90288 59.7042 9.91024 59.6049C9.91392 59.5313 9.9176 59.465 9.9176 59.4061C9.9176 59.3473 9.91024 59.2994 9.89552 59.259V59.075H6.92576C6.54672 59.0676 6.23024 59.0602 5.95424 59.0602C5.76656 59.0602 5.60096 59.0639 5.45744 59.075H4.50064V60.0097V79.05V82.9214L9.89552 82.8809V79.05V59.9692ZM64.2528 82.8809H68.735H69.2245V79.05V76.5844V59.9692V59.075H68.5584C68.4259 59.0639 68.264 59.0602 68.0653 59.0602C67.804 59.0602 67.4986 59.0676 67.1269 59.075H63.9584C63.9584 64.8967 63.9584 70.7516 63.9584 76.5844V79.05V82.8809H64.2528ZM63.8958 53.9781V57.2607H69.2907L69.2466 53.923C69.2466 52.554 68.3045 50.817 66.6595 50.8575C64.3853 50.8686 63.9106 52.3405 63.8958 53.9781ZM4.50064 53.9781V57.2607H5.49424C5.66352 57.2681 5.86224 57.2681 6.09776 57.2607H9.89552V53.9781C9.81824 52.3921 8.79888 51.1261 7.17232 51.1261C5.14832 51.1261 4.5264 52.5871 4.50064 53.9781Z" fill="#1D8F80"/>
</svg>
