<svg width="88" height="89" viewBox="0 0 88 89" fill="none" xmlns="http://www.w3.org/2000/svg">
<path fill-rule="evenodd" clip-rule="evenodd" d="M25.1822 88.3202H82.2443C82.4099 86.344 81.9168 74.8072 82.5755 74.3141C82.5755 73.3242 85.2104 67.0645 85.8691 65.5815C86.2003 64.5916 87.3522 61.9567 87.5178 61.1324V55.2002H25.1822V57.0144C25.2154 57.0144 25.2485 57.0144 25.2853 57.0144H84.8829C84.9565 57.0144 85.019 57.0144 85.0742 57.0144H85.9538V58.744V60.5104H73.3424C62.8102 60.5693 47.748 60.5693 37.157 60.5104H25.1896V60.3632H25.1822V62.0965H33.3114V73.4898H25.1822V75.2084H80.3307V80.0807H25.1822V81.7146H80.4448V86.5869H25.1822V88.3202ZM76.7795 62.0965H85.4754L80.8018 73.4898H76.7795V62.0965ZM66.3872 62.0965H75.0867V73.4898H66.3872V62.0965ZM55.9434 62.0965H64.6392V73.4898H55.9434V62.0965ZM45.4958 62.0965H54.1917V73.4898H45.4958V62.0965ZM35.1035 62.0965H43.803V73.4898H35.1035V62.0965Z" fill="#010101"/>
<path fill-rule="evenodd" clip-rule="evenodd" d="M25.2742 33.5064H31.5891V43.527H25.2742V33.5064ZM11.0584 31.1622L10.5174 30.6066C10.1347 30.176 9.74096 29.6718 9.29936 29.164C6.79696 26.6616 6.96992 27.5779 6.992 24.8474V22.9043H8.4088H8.47504H24.7885H26.2715V23.3974V24.2218C26.2715 26.0102 26.3598 26.5917 25.9698 27.151L25.3294 27.8061L25.2853 27.8466C25.1933 27.9386 25.105 28.0306 25.024 28.1226L21.8261 31.4088C21.4838 31.648 21.1526 31.8026 20.8362 31.8026H12.431C11.9306 31.8026 11.489 31.5523 11.0584 31.1622ZM5.60832 28.0821L5.60096 28.0931L8.2248 30.6397C8.2432 30.6654 8.26528 30.6912 8.28368 30.717L9.38032 31.8026H6.83008H0.0736C-0.092 33.12 0.0736 41.3595 0.0736 43.8288C0.0736 44.8187 0.0736001 44.8187 0.56672 45.1499L6.17136 49.761C6.88528 50.335 7.728 50.8429 7.93408 51.7077C7.9672 51.8402 7.98192 51.9763 7.98192 52.1272C8.14752 58.3869 7.98192 65.7469 7.98192 72.1722V88.32H25.2853C25.0534 87.6282 25.116 52.3774 25.3368 51.7334C25.7306 50.6037 27.1768 49.6874 31.8762 45.8086C33.028 44.8187 33.1936 45.3118 33.1936 43.1701C33.028 39.7109 33.3592 34.7686 33.1936 31.8026C32.1043 31.8026 29.716 31.8614 27.7619 31.8026H23.7066L27.5227 28.0931C28.1152 27.4822 27.9202 27.4123 27.9202 25.3736C27.9202 22.7277 28.0526 19.8205 27.9643 16.9979V16.0595H27.9238L27.9202 15.9822L20.0891 16.0154C20.1406 12.9058 19.8205 12.0778 17.5389 10.7088C17.3733 9.55696 17.3733 0.82432 17.5389 0H15.7283V10.7088C13.3326 11.9968 13.0971 13.259 13.2149 15.9822H5.34704V16.0595V17.7965V26.3635C5.34704 27.5301 5.34704 27.8098 5.60832 28.0821ZM14.7789 15.9638C13.7227 10.7125 19.4267 11.0731 18.7496 15.9638H14.7789ZM6.992 17.7965H26.2715V21.2557H6.992V17.7965ZM9.55328 51.6893H23.471V86.7082H9.55328V51.6893ZM1.71856 33.5064H8.03344V43.527H1.71856V33.5064ZM9.5128 33.5064H15.8277V43.527H9.5128V33.5064ZM17.48 33.5064H23.7949V43.527H17.48V33.5064ZM11.7723 50.0922C10.5138 50.0922 9.94336 50.1915 9.44288 50.0922H9.04176L8.52656 49.669C8.36832 49.5622 8.188 49.4298 7.98192 49.2678C7.79056 49.0875 7.58816 48.9109 7.38944 48.7342L2.9808 45.1205H30.0178L24.2843 50.0922H23.1435C22.6798 50.1142 22.0726 50.0922 21.1637 50.0922H13.719H11.7723Z" fill="#1F8F80"/>
<path fill-rule="evenodd" clip-rule="evenodd" d="M58.5672 24.5526L49.3414 19.2792L52.1419 17.4649C52.4731 17.2993 63.1819 20.2654 65.1581 20.7622L74.2219 15.6544L75.0462 16.1475L76.5293 18.4549L49.669 33.7784L44.7267 29.4949C44.7267 29.3293 46.3754 28.5049 47.1997 28.0118L50.3277 29.1637L58.5672 24.5526ZM49.3414 35.9201L78.8366 18.948C77.8467 17.4649 76.3637 15.1576 75.8706 14.6645C74.5531 13.8401 73.232 14.1713 71.9146 14.9957L64.9962 19.1136C61.8645 18.1237 57.581 17.1374 54.4493 16.3131C52.9662 15.8163 52.4731 15.9819 51.9763 15.9819C51.6488 15.9819 46.8685 18.948 46.3754 19.2792C52.4731 23.0696 55.7667 24.5526 55.2736 24.7145L50.1658 27.5187L47.3653 26.3632L41.9262 29.3293L49.3414 35.9201Z" fill="#010101"/>
<path fill-rule="evenodd" clip-rule="evenodd" d="M13.0898 28.1779H13.7485H14.2453H14.904V26.5293H13.0898V28.1779Z" fill="#219081"/>
<path fill-rule="evenodd" clip-rule="evenodd" d="M18.3632 28.1779H20.0118V27.5192V27.188V26.5293H18.3632V28.1779Z" fill="#1F8F80"/>
</svg>
