<svg width="89" height="90" viewBox="0 0 89 90" fill="none" xmlns="http://www.w3.org/2000/svg">
<path fill-rule="evenodd" clip-rule="evenodd" d="M65.6351 85.2871C65.118 84.744 64.6679 84.1488 64.3034 83.5276C63.6821 82.4079 63.3287 81.1207 63.3287 79.7518C63.3287 75.4552 66.8106 71.9695 71.111 71.9695C75.4076 71.9695 78.8932 75.4552 78.8932 79.7518C78.8932 84.0521 75.4076 87.5377 71.111 87.5377C68.9757 87.5377 67.0413 86.6784 65.6351 85.2871ZM71.111 76.095C73.1309 76.095 74.7715 77.7318 74.7715 79.7518C74.7715 81.7755 73.1309 83.4123 71.111 83.4123C69.091 83.4123 67.4505 81.7755 67.4505 79.7518C67.4505 77.7318 69.091 76.095 71.111 76.095ZM71.111 77.9959C72.0819 77.9959 72.8668 78.7846 72.8668 79.7518C72.8668 80.7227 72.0819 81.5076 71.111 81.5076C70.14 81.5076 69.3551 80.7227 69.3551 79.7518C69.3551 78.7846 70.14 77.9959 71.111 77.9959ZM31.705 76.095C33.725 76.095 35.3655 77.7318 35.3655 79.7518C35.3655 81.7755 33.725 83.4123 31.705 83.4123C29.6851 83.4123 28.0445 81.7755 28.0445 79.7518C28.0445 77.7318 29.6851 76.095 31.705 76.095ZM31.705 77.9959C32.6759 77.9959 33.4609 78.7846 33.4609 79.7518C33.4609 80.7227 32.6759 81.5076 31.705 81.5076C30.7341 81.5076 29.9492 80.7227 29.9492 79.7518C29.9492 78.7846 30.7341 77.9959 31.705 77.9959ZM84.7857 70.3625C86.7945 70.3625 87.7989 70.9651 88.4053 72.3713C88.8591 73.9039 88.781 75.6784 88.647 77.5979C87.6464 81.5932 83.4167 80.3693 80.6007 80.5516C80.2659 85.5066 76.1144 89.2787 71.111 89.2787C66.1076 89.2787 62.0676 85.4769 61.625 80.626C61.5766 80.5553 61.5283 80.4809 61.4725 80.4102H41.2059C41.0273 83.0328 39.7886 85.3615 37.9137 86.976C37.7537 87.1174 37.5863 87.2513 37.4078 87.3815L37.3892 87.3964C37.3594 87.4187 37.3259 87.441 37.2962 87.4671C35.7263 88.6054 35.2688 89.2787 31.705 89.2787C28.1375 89.2787 22.5427 85.4806 22.2079 80.5218C19.2579 80.5999 14.2619 81.4667 14.0462 76.3926C13.8453 72.3713 14.0462 68.3537 14.0462 64.3324V15.7008C14.0462 7.05554 14.8497 7.25642 10.2257 7.25642C8.21693 7.25642 6.20813 7.25642 4.19933 7.25642C-1.02727 7.25642 -0.625507 2.03354 1.38329 0.627378C2.78945 -0.176142 5.00285 0.0247376 6.81077 0.0247376C14.4479 0.0247376 21.2816 -0.983383 21.2816 9.87158C21.2816 18.5131 20.8798 69.559 21.4825 70.1616C42.586 70.2286 63.6859 70.2955 84.7857 70.3625ZM77.5614 72.747C79.2317 74.2871 80.3514 76.4149 80.5895 78.8032H84.7857C87.598 78.8032 87.1963 76.5935 87.1963 74.3801C87.1963 72.8847 86.6494 71.9175 85.3288 71.9286L76.8621 72.0105C76.7207 72.0105 77.4573 72.5387 77.5614 72.747ZM61.6324 78.8032C61.8519 76.6009 62.8191 74.6182 64.2773 73.1153H64.281C64.3145 73.0818 64.8428 72.5647 65.1441 72.3527C65.4566 72.1332 65.743 71.9919 65.743 71.9919L63.8049 71.9807C63.7044 71.9733 63.5966 71.9695 63.485 71.9695H61.837H37.1957C39.0966 73.3125 40.4842 75.3361 41.005 77.6872C41.0645 77.9364 41.1092 78.1894 41.1427 78.4572C41.1575 78.5725 41.1724 78.6879 41.1836 78.8032H61.6324ZM22.2265 78.8069C22.3641 77.4193 22.7956 76.1211 23.4652 74.9716C24.0381 73.9114 24.8677 72.9181 26.1027 71.9695C22.8886 71.9695 19.6708 71.9695 16.4567 71.9695C16.055 71.9695 15.6532 72.3713 15.6532 72.7731C15.6532 78.3865 14.8534 79.2012 22.2265 78.8069ZM31.705 71.9695C36.0016 71.9695 39.4873 75.4552 39.4873 79.7518C39.4873 84.0521 36.0016 87.5377 31.705 87.5377C30.4737 87.5377 29.3056 87.2476 28.2715 86.7379C26.6384 85.8451 25.3364 84.4241 24.5701 82.8691C24.1534 81.9131 23.9228 80.8603 23.9228 79.7518C23.9228 75.4552 27.4047 71.9695 31.705 71.9695ZM17.7476 17.0549C18.0861 17.04 18.4023 17.0326 18.6776 17.0549H19.6708V17.9105V69.559V70.3774H18.2461C17.5393 70.4109 16.8771 70.4704 16.3972 70.3774H15.6532V69.559V17.9105V17.0549H17.7476ZM19.6708 8.1827C19.7973 9.62606 19.7564 11.7837 19.6708 13.3461V15.5967H17.662H15.6532C15.6532 13.2903 15.6532 10.9801 15.6532 8.6663C15.2515 6.85466 14.6488 6.05114 13.0418 5.64938C10.6275 5.24762 3.79757 6.05114 2.58857 5.24762C1.18241 4.4441 1.38329 2.63618 2.58857 1.83266C3.59669 1.4309 11.8328 1.63178 13.4435 1.63178C16.9031 1.63178 19.6708 4.78634 19.6708 8.1827Z" fill="#010101"/>
<path fill-rule="evenodd" clip-rule="evenodd" d="M73.1235 41.0381V48.002H66.2638V41.0381H73.1235ZM70.512 15.2437H70.5158V16.7056V35.5958V39.2116V39.4125H71.2151H76.8658H81.7725C83.6511 39.937 84.3356 41.2167 84.5625 42.8609H84.5848V43.0469C84.7559 44.5312 84.5848 46.2945 84.5848 48.0541V60.278V65.3372V69.9053V70.3629L82.9592 70.3555V66.8438V42.8609H82.974C82.6727 41.399 81.8022 41.0195 79.5628 41.0195C79.3508 41.0195 79.1239 41.0158 78.8858 41.0121H76.0028C75.9358 41.0158 75.8689 41.0233 75.8019 41.0307H74.7119L74.7082 49.3747H64.7758L64.6828 41.0307H63.5966C63.5296 41.0233 63.4589 41.0158 63.3883 41.0121H60.3527C60.1072 41.0158 59.8729 41.0195 59.6645 41.0195C59.4637 41.0195 59.2702 41.0233 59.0879 41.0307H56.4281V45.9448C56.4244 47.0348 56.417 48.3368 56.4132 49.7541V60.6463C56.4207 62.3761 56.4356 63.9719 56.4616 65.2963V70.2736L54.8099 70.2662V67.2046V50.5093V42.7233V41.0307H51.979C51.8042 41.0233 51.6182 41.0195 51.4247 41.0195C51.2164 41.0195 50.9895 41.0158 50.7514 41.0121H47.8647C47.7977 41.0158 47.7345 41.0233 47.6675 41.0307H46.6334L46.5739 49.4305H36.6414L36.5633 41.0307C35.1162 41.0307 33.6654 41.0121 32.2184 41.0121C31.9728 41.0158 31.7385 41.0195 31.5302 41.0195C29.7222 41.0195 28.7178 41.2204 28.3124 42.6303C28.1412 43.6607 28.264 57.9493 28.3049 64.3105V70.1843L26.7053 70.1769V65.1363V48.0541C26.7053 44.2373 25.9018 40.4169 29.5214 39.4125H29.6292H34.428H36.8051H40.075H40.726V39.2339V31.8683V25.9312C40.6256 19.1087 40.5698 11.9924 40.9752 10.8764C41.5779 9.47022 42.3814 8.6667 44.1893 8.46582H55.6469H67.0748C70.088 8.86014 70.4674 10.3519 70.512 15.2437ZM68.9087 39.4125V15.9542V15.7012V15.2474V15.2437C68.9162 10.5862 68.9496 10.0505 66.0369 10.058L60.5797 10.0691L60.6392 18.3127H50.7068L50.6696 10.0691C48.5008 10.0691 46.332 10.0989 44.1633 10.0989C41.816 10.4411 42.3814 13.1605 42.3814 15.4966V16.3448V25.2802V36.3063V37.8055V39.3232V39.4125H44.3493H48.2106H55.6469H62.8823H65.2966H66.952H68.9087ZM45.0189 41.0381V48.002H38.1555V41.0381H45.0189ZM52.3399 10.084L58.861 10.1026L58.9057 16.8358L52.3175 16.8767L52.3399 10.084Z" fill="#1E8F80"/>
<path d="M50.6212 64.9541H46.6296V66.1408H50.6212V64.9541Z" fill="#1E8F80"/>
<path d="M78.763 64.9541H74.7715V66.1408H78.763V64.9541Z" fill="#1E8F80"/>
<path d="M64.6679 33.9883H60.6764V35.175H64.6679V33.9883Z" fill="#1E8F80"/>
</svg>
