<svg width="90" height="86" viewBox="0 0 90 86" fill="none" xmlns="http://www.w3.org/2000/svg">
<path d="M64.7392 5.30472L3.32196 25.9172L2.04228 22.7143C22.6102 15.7877 43.178 8.86848 63.7459 1.94928L64.9252 5.24148L64.7392 5.30472ZM60.8406 40.057V8.24352L66.9154 6.20496L64.6871 0L63.7682 0.30876C42.5122 7.46232 21.2561 14.6122 0 21.7657L2.42916 27.8479L8.91684 25.668V85.3145H37.1293V83.7632H10.4718V25.1472C26.7431 19.6862 43.0144 14.2253 59.2856 8.76432V40.057H60.8406ZM55.2904 21.1445H40.9498V40.057H42.5047V22.6957H53.7354V40.057H55.2904V21.1445ZM31.5158 31.7018H17.8411V73.935H31.5158V31.7018ZM19.5858 33.2568H29.9646V41.8723H19.3924V33.2568H19.5858ZM19.5858 43.4236H29.9646V52.0428H19.3924V43.4236H19.5858ZM19.5858 53.594H29.9646V62.2133H19.3924V53.594H19.5858ZM19.5858 63.7645H29.9646V72.38H19.3924V63.7645H19.5858Z" fill="#010101"/>
<path d="M39.7705 40.0342H86.5383C87.2935 40.0342 87.978 40.3876 88.4765 40.9567C88.9712 41.5259 89.28 42.3108 89.28 43.1739V85.314H88.1528H87.7362H38.5727H37.6203H37.0251V43.1739C37.0251 42.3108 37.3339 41.5259 37.8324 40.9567C38.3271 40.3876 39.0153 40.0342 39.7705 40.0342ZM56.6333 49.3937H44.0187V61.5469H56.6333V49.3937ZM45.7634 50.9487H55.082V59.992H45.5737V50.9487H45.7634ZM81.2634 83.0188V83.7628H87.7362V43.1739C87.7362 42.7981 87.6023 42.4559 87.3828 42.2067C87.167 41.9574 86.8657 41.8012 86.5383 41.8012H39.7705C39.4394 41.8012 39.1418 41.9574 38.9223 42.2067C38.7066 42.4559 38.5727 42.7981 38.5727 43.1739V83.7628H62.589C62.589 74.9241 62.589 66.0816 62.589 57.2429L62.5927 57.2355V57.2057C62.5927 57.016 62.6113 56.8374 62.6448 56.6775C62.6745 56.5175 62.7192 56.3761 62.7787 56.2534C62.8754 56.0488 63.0019 55.8888 63.1581 55.7735C63.3107 55.6582 63.4929 55.5875 63.7124 55.5615L63.7645 55.5577H79.9874C80.2106 55.5577 80.4041 55.6173 80.5715 55.7214C80.75 55.8367 80.9025 56.0116 81.0179 56.2236C81.096 56.365 81.1555 56.5287 81.2001 56.6998C81.2411 56.8709 81.2634 57.0569 81.2634 57.2429V81.7465V83.0188ZM79.7084 83.7628V83.0188V81.7465V57.3024V57.109H64.1402C64.1402 65.9923 64.1402 74.8794 64.1402 83.7628H79.7084Z" fill="#1E8F80"/>
</svg>
