<svg width="23" height="18" viewBox="0 0 23 18" fill="none" xmlns="http://www.w3.org/2000/svg">
<path fill-rule="evenodd" clip-rule="evenodd" d="M18.2178 10.6579C18.1299 10.7752 18.0068 10.9078 17.871 11.0434C17.7364 11.1777 17.5885 11.3164 17.45 11.4459L17.2953 11.5913L17.1592 11.7222C16.8021 12.0733 16.3284 12.528 15.8199 13.0161L15.8163 13.0196C14.7396 14.0533 13.5064 15.2371 12.9211 15.8764C12.7359 16.0792 12.6286 16.3011 12.5859 16.5222C12.5388 16.7658 12.569 17.0102 12.6582 17.2281C12.6926 17.3121 12.7363 17.3929 12.788 17.4685C12.8397 17.5441 12.8989 17.6138 12.9643 17.6758C13.0301 17.7381 13.1031 17.7936 13.1818 17.8404C13.258 17.8858 13.3392 17.9226 13.4237 17.949C13.6437 18.0179 13.8947 18.0211 14.1599 17.9331C14.4028 17.8526 14.6582 17.6956 14.9138 17.4433L22.3381 10.1468C22.5724 9.91762 22.743 9.70809 22.8522 9.51137C22.9565 9.32292 23.0049 9.14662 22.9996 8.97585C22.9943 8.80441 22.9343 8.62882 22.8226 8.44326C22.7058 8.24909 22.5331 8.04514 22.3078 7.82521L14.8862 0.528604C14.8131 0.457375 14.7328 0.381371 14.6456 0.311181C14.5603 0.242457 14.4665 0.177656 14.3634 0.126089C14.2635 0.0760343 14.1523 0.0367091 14.0282 0.0161958C13.9025 -0.00455389 13.7627 -0.00668086 13.6067 0.0175192C13.4982 0.0343458 13.3961 0.0651158 13.3015 0.106899C13.2021 0.150809 13.1106 0.20748 13.0288 0.27318C12.9419 0.342991 12.8658 0.423012 12.8023 0.508894C12.7367 0.597659 12.6835 0.693798 12.6445 0.79282C12.4819 1.20479 12.5624 1.56084 12.7605 1.88508C12.9694 2.22696 13.3088 2.54 13.6396 2.8451L13.8225 3.01436C13.8835 3.07145 13.9439 3.12888 14.0026 3.18674L17.1894 6.30864C17.2716 6.38965 17.3701 6.48182 17.4735 6.57858L17.4765 6.58151C17.6101 6.70633 17.7518 6.8391 17.8811 6.96823C18.0125 7.09954 18.1317 7.22805 18.2176 7.34267L18.5917 7.77104C17.866 7.72652 17.1462 7.78125 16.4099 7.76599L16.404 7.76584C16.2089 7.76183 16.0213 7.75795 15.792 7.75795H2.58656C2.5121 7.75795 2.36543 7.75469 2.21286 7.75143L2.20054 7.75119C1.65659 7.73933 1.01848 7.72534 0.683211 7.89266C0.552973 7.9577 0.441662 8.03918 0.34923 8.13229C0.251767 8.23051 0.174909 8.34192 0.11875 8.4606C0.0780211 8.54672 0.0476898 8.63776 0.0279002 8.73106C0.00767926 8.8263 -0.00152078 8.92352 0.00020423 9.02013C0.00188132 9.11585 0.014723 9.21227 0.0381543 9.30647C0.0612023 9.39883 0.0948878 9.4892 0.138923 9.57499C0.199251 9.69263 0.279463 9.80186 0.378987 9.89658C0.473862 9.98691 0.586371 10.0646 0.715842 10.1241L1.39075 10.2467L18.0447 10.2641L18.5438 10.2762L18.2178 10.6579Z" fill="white"/>
</svg>
