<svg width="118" height="82" viewBox="0 0 118 82" fill="none" xmlns="http://www.w3.org/2000/svg">
<path fill-rule="evenodd" clip-rule="evenodd" d="M113.266 81.4531H118V76.1927C117.474 77.2449 117.211 79.3489 114.844 80.6639L113.266 81.4531Z" fill="white"/>
<path fill-rule="evenodd" clip-rule="evenodd" d="M37.97 62.2995C37.9483 62.9716 37.9239 63.5693 37.8904 64.1045C37.8529 64.7058 37.8035 65.2409 37.7342 65.7309C37.6677 66.201 37.583 66.631 37.4741 67.0376C37.3926 67.3408 37.297 67.6325 37.1844 67.9194L47.9922 67.9915L47.9859 69.5972L36.3163 69.519C36.0575 69.8625 35.7652 70.176 35.4573 70.4723C35.1271 70.7902 34.781 71.0863 34.4388 71.379C34.1144 71.6565 33.7933 71.9314 33.5057 72.2109C33.3313 72.3803 33.1688 72.5525 33.0244 72.729H47.99V74.3412H30.6269L30.9093 73.3209C31.2852 71.9613 32.3237 71.0729 33.3931 70.1579C33.7833 69.8242 34.1783 69.4864 34.5273 69.1302C34.8697 68.7807 35.17 68.4121 35.3803 68.0099C35.5775 67.6329 35.7328 67.253 35.8566 66.8441C35.9808 66.4339 36.072 65.9982 36.1409 65.5106C36.2054 65.0557 36.2515 64.5552 36.2868 63.9912C36.3192 63.4766 36.3428 62.9184 36.3629 62.2995L3.42031 62.293C2.90643 62.2293 2.44812 62.1104 2.04574 61.9373C1.63775 61.7616 1.28678 61.5293 0.993004 61.241C0.692171 60.9456 0.458853 60.5993 0.29287 60.2026C0.128878 59.8101 0.0313142 59.3687 0 58.8789L0.00162955 2.88923C0.012671 2.50152 0.0780145 2.14638 0.200194 1.82618C0.334501 1.47466 0.537228 1.16442 0.81254 0.898337C1.07229 0.647462 1.3905 0.445096 1.77007 0.295041C2.14113 0.148245 2.57392 0.0506821 3.07151 0.00543033L86.2015 0C86.6225 0.0745749 87.0298 0.190962 87.4119 0.385726C87.783 0.574878 88.1176 0.831908 88.4085 1.17944C88.658 1.47756 88.8543 1.82202 88.9979 2.21154C89.1407 2.59872 89.2319 3.03042 89.2717 3.50502C89.2717 13.0334 89.275 22.5623 89.275 32.0909H87.6629V3.59226C87.6349 3.29433 87.5797 3.02807 87.497 2.79475C87.4161 2.56704 87.3087 2.37246 87.1746 2.21227C87.0479 2.06113 86.8915 1.93478 86.7054 1.83469C86.5206 1.7355 86.3052 1.66056 86.0596 1.61114H3.1526C2.85774 1.64191 2.60813 1.69658 2.40178 1.77351C2.20304 1.84772 2.0452 1.94275 1.927 2.05714C1.8222 2.15833 1.74382 2.28485 1.69097 2.43472C1.64499 2.56541 1.61784 2.71366 1.60879 2.87801V46.5914H48.5819V48.2688H1.60879V58.8231C1.63033 59.1024 1.68427 59.3491 1.77061 59.5622C1.8555 59.7718 1.97207 59.9495 2.12014 60.0949C2.27526 60.2471 2.47201 60.3727 2.70967 60.471C2.9515 60.5711 3.23532 60.6431 3.56149 60.6873H47.99V62.2995H37.97ZM44.8488 52.1506C43.6442 52.1506 42.6675 53.1272 42.6675 54.332C42.6675 55.5367 43.6442 56.5135 44.8488 56.5135C46.0536 56.5135 47.0303 55.5367 47.0303 54.332C47.0303 53.1272 46.0536 52.1506 44.8488 52.1506Z" fill="#010101"/>
<path d="M57.1437 34.4201H111.729C112.541 34.4201 113.317 34.5834 114.027 34.8786C114.765 35.185 115.429 35.6339 115.985 36.1898C116.541 36.7457 116.99 37.41 117.296 38.1474C117.591 38.8573 117.755 39.6342 117.755 40.4462V75.2299C117.755 76.0419 117.591 76.8188 117.296 77.5285C116.99 78.2662 116.541 78.9304 115.985 79.4863C115.429 80.0422 114.765 80.4911 114.027 80.7977C113.318 81.0928 112.541 81.256 111.729 81.256H57.1437C56.3315 81.256 55.555 81.0928 54.8451 80.7977C54.1076 80.4911 53.4432 80.0422 52.8873 79.4863C52.3314 78.9304 51.8825 78.266 51.5759 77.5285C51.2808 76.8186 51.1176 76.0419 51.1176 75.2299V40.4462C51.1176 39.6342 51.2808 38.8573 51.5759 38.1474C51.8825 37.41 52.3312 36.7459 52.8873 36.1898C53.4432 35.6338 54.1074 35.185 54.8449 34.8784C55.5548 34.5834 56.3315 34.4201 57.1437 34.4201ZM52.7296 44.8438H116.143V40.4462C116.143 39.8509 116.023 39.2823 115.807 38.7637C115.583 38.2247 115.254 37.7378 114.845 37.3293C114.438 36.9213 113.951 36.592 113.411 36.3672C112.893 36.1514 112.324 36.0322 111.729 36.0322H57.1437C56.5481 36.0322 55.9798 36.1514 55.4614 36.3672C54.9222 36.5916 54.4353 36.9211 54.0269 37.3293C53.6185 37.7378 53.2891 38.2247 53.0648 38.7637C52.8491 39.2823 52.7296 39.8507 52.7296 40.4462V44.8438ZM116.143 46.6831H52.7296V55.2433H116.143V46.6831ZM59.8441 62.8487H71.947C72.1998 62.8487 72.4422 62.8997 72.6639 62.9919C72.894 63.0873 73.1011 63.2272 73.2737 63.3999C73.4464 63.5724 73.5862 63.7796 73.6817 64.0097C73.7737 64.2316 73.8247 64.4738 73.8247 64.7265V71.8681C73.8247 72.1208 73.7737 72.363 73.6817 72.5849C73.5862 72.8149 73.4464 73.022 73.2737 73.1949L73.2109 73.2577H73.2046C73.0459 73.4016 72.8625 73.5192 72.6619 73.6027C72.4407 73.6946 72.1989 73.7457 71.947 73.7457H59.8441C59.5921 73.7457 59.3503 73.6946 59.1289 73.6027C58.9002 73.5075 58.6934 73.3677 58.5204 73.1949L58.5148 73.1891C58.343 73.0164 58.2042 72.8108 58.1095 72.5831C58.0176 72.3617 57.9663 72.1199 57.9663 71.8681V64.7265C57.9663 64.4745 58.0174 64.2327 58.1095 64.0113C58.1928 63.8109 58.3104 63.6276 58.4545 63.4688V63.4627L58.5173 63.3999C58.69 63.2272 58.8971 63.0874 59.1271 62.9919C59.3489 62.8997 59.5912 62.8487 59.8441 62.8487ZM76.5568 62.7479H98.2732V64.5873H76.3427V62.7479H76.5568ZM76.5568 67.3922H86.4977V69.2314H76.3427V67.3922H76.5568ZM71.947 64.4607H59.8441C59.8081 64.4607 59.7741 64.468 59.7436 64.4807C59.7109 64.4944 59.681 64.5147 59.656 64.5395L59.6369 64.5585C59.6209 64.5784 59.6077 64.6007 59.5979 64.6244C59.5854 64.6544 59.5786 64.6892 59.5786 64.7265V71.8681C59.5786 71.9052 59.5854 71.94 59.5981 71.9704C59.6113 72.0026 59.6311 72.0321 59.6555 72.0567C59.6801 72.081 59.7094 72.1009 59.7418 72.1141C59.7722 72.1266 59.8068 72.1336 59.8441 72.1336H71.947C71.9842 72.1336 72.0188 72.1266 72.0492 72.1141C72.0715 72.1049 72.0927 72.0925 72.1119 72.0775L72.1341 72.0553C72.1593 72.0299 72.1795 72.0004 72.1928 71.9687C72.2054 71.9383 72.2125 71.9041 72.2125 71.8681V64.7265C72.2125 64.6904 72.2054 64.6564 72.1928 64.6258C72.1795 64.5942 72.1593 64.5646 72.1341 64.5395C72.1097 64.5145 72.08 64.4942 72.0474 64.4807C72.017 64.468 71.9828 64.4607 71.947 64.4607ZM116.143 57.0825H52.7296V75.2299C52.7296 75.8253 52.8491 76.3938 53.0648 76.9124C53.2895 77.4525 53.6187 77.9393 54.0262 78.3465L54.0269 78.3474C54.4343 78.7551 54.9213 79.0839 55.4612 79.3088C55.9796 79.5245 56.5481 79.6438 57.1437 79.6438H111.729C112.324 79.6438 112.893 79.5245 113.411 79.3088C113.951 79.0841 114.438 78.7549 114.845 78.3474L114.846 78.3465C115.254 77.9393 115.583 77.4525 115.807 76.9124C116.023 76.394 116.143 75.8255 116.143 75.2299V57.0825Z" fill="#1B8E7F"/>
</svg>
