<svg width="84" height="89" viewBox="0 0 84 89" fill="none" xmlns="http://www.w3.org/2000/svg">
<path d="M74.7038 34.2236H76.7864C75.2119 27.0437 72.1055 21.0596 67.3124 16.393C62.4973 11.7045 55.9618 8.32662 47.5493 6.37992V8.42238C47.5493 9.07956 47.281 9.6768 46.8488 10.109C46.4164 10.5413 45.8194 10.8097 45.1622 10.8097H38.578C37.9208 10.8097 37.3237 10.5413 36.8914 10.109C36.4592 9.6768 36.1908 9.07956 36.1908 8.42238V6.44004C27.9018 8.39574 21.4501 11.7522 16.6838 16.393C11.8908 21.0598 8.78436 27.0437 7.21008 34.2236H9.09324C9.74826 34.2236 10.3444 34.492 10.7766 34.9243L10.7798 34.9276C11.212 35.3597 11.4806 35.9557 11.4806 36.6109V42.646C11.4806 43.3033 11.212 43.9006 10.7798 44.3327C10.3477 44.7649 9.75042 45.0333 9.09324 45.0333H2.5092C1.85202 45.0333 1.25478 44.7649 0.8226 44.3327C0.39042 43.9006 0.12204 43.3033 0.12204 42.646V36.6109C0.12204 35.9537 0.39042 35.3565 0.8226 34.9243C1.25478 34.492 1.85202 34.2236 2.5092 34.2236H5.51268C7.13124 26.5667 10.4123 20.1827 15.5264 15.203C19.4994 11.3346 24.5684 8.32482 30.8119 6.23592H11.3585V8.42238C11.3585 9.07956 11.0902 9.6768 10.6578 10.109C10.2256 10.5413 9.62856 10.8097 8.9712 10.8097H2.38716C1.72998 10.8097 1.13292 10.5413 0.70056 10.109C0.26838 9.6768 0 9.07956 0 8.42238V2.38716C0 1.72998 0.26838 1.13292 0.70074 0.70056C1.13292 0.26838 1.72998 0 2.38716 0H8.9712C9.6264 0 10.2224 0.26838 10.6546 0.70056L10.6578 0.7038C11.0902 1.13616 11.3585 1.73214 11.3585 2.38716V4.57362H36.1908V2.38716C36.1908 1.72998 36.4592 1.13292 36.8915 0.70056C37.3237 0.26838 37.9208 0 38.578 0H45.1622C45.8172 0 46.4132 0.26838 46.8455 0.70056L46.8488 0.7038C47.281 1.13616 47.5493 1.73214 47.5493 2.38716V4.57362H72.3787V2.38716C72.3787 1.72998 72.6471 1.13292 73.0793 0.70056C73.5115 0.26838 74.1087 0 74.7659 0H81.3499C82.0049 0 82.6009 0.26838 83.0333 0.70056L83.0365 0.7038C83.4687 1.13616 83.7373 1.73214 83.7373 2.38716V8.42238C83.7373 9.07956 83.4687 9.6768 83.0365 10.109C82.6042 10.5413 82.0071 10.8097 81.3499 10.8097H74.7659C74.1087 10.8097 73.5115 10.5413 73.0793 10.109C72.6471 9.6768 72.3787 9.07956 72.3787 8.42238V6.23592H53.1837C59.4275 8.32482 64.4967 11.3344 68.4698 15.203C73.584 20.1827 76.8652 26.5667 78.4836 34.2236H81.2878C81.9428 34.2236 82.5388 34.492 82.9712 34.9243L82.9744 34.9276C83.4066 35.3597 83.675 35.9557 83.675 36.6109V42.646C83.675 43.3033 83.4066 43.9006 82.9744 44.3327C82.5421 44.7649 81.945 45.0333 81.2878 45.0333H74.7038C74.0464 45.0333 73.4494 44.7649 73.0172 44.3327C72.5848 43.9006 72.3164 43.3033 72.3164 42.646V36.6109C72.3164 35.9537 72.5848 35.3565 73.0172 34.9243C73.4494 34.492 74.0464 34.2236 74.7038 34.2236ZM81.3499 1.66464H74.7659C74.5681 1.66464 74.3875 1.74636 74.2563 1.87758C74.1251 2.00862 74.0434 2.18934 74.0434 2.38716V8.42238C74.0434 8.6202 74.1249 8.80074 74.2561 8.93214C74.3873 9.06336 74.5681 9.1449 74.7659 9.1449H81.3499C81.5477 9.1449 81.7285 9.06336 81.8597 8.93214C81.9909 8.80074 82.0724 8.6202 82.0724 8.42238V2.38716C82.0724 2.18808 81.9914 2.007 81.8611 1.87596C81.7303 1.74564 81.5492 1.66464 81.3499 1.66464ZM45.1622 1.66464H38.578C38.3801 1.66464 38.1996 1.74636 38.0684 1.87758C37.9372 2.00862 37.8556 2.18934 37.8556 2.38716V8.42238C37.8556 8.6202 37.9372 8.80074 38.0684 8.93214C38.1996 9.06336 38.3801 9.1449 38.578 9.1449H45.1622C45.36 9.1449 45.5405 9.06336 45.6718 8.93214C45.803 8.80074 45.8847 8.6202 45.8847 8.42238V2.38716C45.8847 2.18808 45.8035 2.007 45.6734 1.87596C45.5423 1.74564 45.3613 1.66464 45.1622 1.66464ZM8.9712 1.66464H2.38716C2.18934 1.66464 2.0088 1.74636 1.87758 1.87758C1.74636 2.00862 1.66464 2.18934 1.66464 2.38716V8.42238C1.66464 8.6202 1.74618 8.80074 1.8774 8.93214C2.0088 9.06336 2.18934 9.1449 2.38716 9.1449H8.9712C9.16902 9.1449 9.34974 9.06336 9.48096 8.93214C9.61218 8.80074 9.69372 8.6202 9.69372 8.42238V2.38716C9.69372 2.18808 9.61272 2.007 9.48258 1.87596C9.35154 1.74564 9.17046 1.66464 8.9712 1.66464ZM9.09324 35.8884H2.5092C2.31138 35.8884 2.13084 35.9699 1.99962 36.1012C1.8684 36.2324 1.78668 36.4131 1.78668 36.6109V42.646C1.78668 42.8438 1.86822 43.0245 1.99944 43.1557C2.13066 43.2869 2.31138 43.3687 2.5092 43.3687H9.09324C9.29106 43.3687 9.47178 43.2869 9.603 43.1557C9.73422 43.0245 9.81576 42.8438 9.81576 42.646V36.6109C9.81576 36.4117 9.73476 36.2306 9.60462 36.0995C9.47358 35.9694 9.2925 35.8884 9.09324 35.8884ZM81.2878 35.8884H74.7038C74.506 35.8884 74.3254 35.9699 74.1942 36.1012C74.063 36.2324 73.9813 36.4131 73.9813 36.6109V42.646C73.9813 42.8438 74.0628 43.0245 74.194 43.1557C74.3252 43.2869 74.506 43.3687 74.7038 43.3687H81.2878C81.4856 43.3687 81.6664 43.2869 81.7976 43.1557C81.9288 43.0245 82.0103 42.8438 82.0103 42.646V36.6109C82.0103 36.4117 81.9293 36.2306 81.799 36.0995C81.668 35.9694 81.4869 35.8884 81.2878 35.8884Z" fill="#010101"/>
<path d="M25.436 71.8413C25.1401 69.5535 24.307 67.3447 22.9084 65.2194C21.4906 63.0646 19.4913 60.9927 16.8826 59.0085L16.3008 58.5663C24.2833 44.608 32.2742 30.6538 40.2455 16.6891L40.3164 16.614C40.5114 16.407 40.734 16.2357 40.9887 16.1068C41.2429 15.9781 41.5239 15.8949 41.8356 15.8643L41.8376 15.8838L41.8394 15.8643C42.1512 15.8949 42.4325 15.9781 42.6865 16.1068C42.9412 16.2357 43.1638 16.407 43.3588 16.614L43.4295 16.6891C51.4156 30.6456 59.3935 44.6069 67.3742 58.5663L66.7926 59.0085C64.1837 60.9927 62.1846 63.0646 60.7666 65.2194C59.3683 67.3447 58.5351 69.5535 58.239 71.8413L56.5938 71.6332C56.9225 69.0928 57.8416 66.6495 59.3817 64.309C60.7945 62.1619 62.7304 60.1031 65.2131 58.1371L42.6391 18.657V51.8398C43.8349 52.0148 44.9059 52.5751 45.7216 53.3905C46.7156 54.3847 47.3305 55.7581 47.3305 57.2748C47.3305 58.7913 46.7156 60.1647 45.7216 61.1588C44.7275 62.1529 43.3541 62.7678 41.8374 62.7678C40.3209 62.7678 38.9475 62.1529 37.9534 61.1588C36.9592 60.1647 36.3444 58.7913 36.3444 57.2748C36.3444 55.7581 36.9592 54.3847 37.9534 53.3905C38.7549 52.589 39.8032 52.0341 40.9743 51.8492V18.7654L18.4621 58.1371C20.9448 60.1031 22.8807 62.1619 24.2935 64.309C25.8336 66.6495 26.7527 69.0928 27.0812 71.6332L25.436 71.8413ZM44.5446 54.5676C43.852 53.8749 42.8947 53.4463 41.8374 53.4463C40.7801 53.4463 39.823 53.8749 39.1304 54.5676C38.4378 55.2602 38.0092 56.2174 38.0092 57.2748C38.0092 58.3321 38.4376 59.2891 39.1304 59.9818C39.823 60.6746 40.7801 61.103 41.8374 61.103C42.8947 61.103 43.852 60.6744 44.5446 59.9818C45.2373 59.2891 45.6657 58.3321 45.6657 57.2748C45.6657 56.2174 45.2373 55.2602 44.5446 54.5676Z" fill="#1B8E7F"/>
<path d="M24.5785 76.1097H59.0963C59.8475 76.1097 60.5322 76.4177 61.0304 76.9147L61.0337 76.9179C61.5305 77.4162 61.8386 78.1009 61.8386 78.8519V85.4577C61.8386 86.2097 61.5298 86.8952 61.0321 87.3934L61.0337 87.395C60.5371 87.8916 59.8513 88.2 59.0963 88.2H24.5785C23.8235 88.2 23.1377 87.8916 22.6411 87.395C22.1447 86.8984 21.8363 86.2126 21.8363 85.4577V78.8519C21.8363 78.0971 22.1447 77.4111 22.6411 76.9147L22.6429 76.9163C23.1412 76.4184 23.8266 76.1097 24.5785 76.1097ZM59.0963 77.7744H24.5785C24.2809 77.7744 24.0116 77.8946 23.8181 78.0883V78.0915C23.6225 78.2872 23.501 78.5565 23.501 78.8519V85.4577C23.501 85.7532 23.6225 86.0225 23.8181 86.2182C24.0138 86.4137 24.2831 86.5353 24.5785 86.5353H59.0963C59.3919 86.5353 59.6612 86.4137 59.8567 86.2182H59.8601C60.0538 86.0245 60.1738 85.7554 60.1738 85.4577V78.8519C60.1738 78.5543 60.0538 78.285 59.8601 78.0915L59.8567 78.0883C59.6632 77.8946 59.3941 77.7744 59.0963 77.7744Z" fill="#010101"/>
</svg>
