<svg width="88" height="91" viewBox="0 0 88 91" fill="none" xmlns="http://www.w3.org/2000/svg">
<path d="M45.4848 20.9492C43.9834 20.7076 42.4421 20.5821 40.8706 20.5821C36.962 20.5821 33.2352 21.3592 29.8361 22.7671C26.3059 24.2295 23.1283 26.3728 20.4678 29.0333C17.8074 31.6937 15.6638 34.8713 14.2015 38.4017C12.7938 41.8006 12.0167 45.5276 12.0167 49.4361C12.0167 53.3445 12.7938 57.0716 14.2015 60.4704C15.6638 64.0008 17.8074 67.1784 20.4678 69.8389C23.1283 72.4993 26.3059 74.6427 29.8361 76.105C33.2352 77.5129 36.962 78.2901 40.8706 78.2901C44.7791 78.2901 48.5061 77.5129 51.905 76.105C55.4354 74.6427 58.6128 72.4993 61.2735 69.8389C62.0139 69.0983 62.6397 68.3614 63.2215 67.5886C63.7963 66.825 64.9506 64.9333 65.5081 64.061L64.5296 62.8358C64.058 63.5625 62.7817 65.5434 62.1063 66.3907C61.4028 67.2733 60.6765 68.1114 60.1111 68.6768C57.6029 71.1852 54.606 73.2063 51.2762 74.5857C48.0704 75.9134 44.5558 76.6463 40.8706 76.6463C37.1853 76.6463 33.6708 75.9134 30.4651 74.5857C27.1351 73.2063 24.1384 71.1852 21.63 68.6768C19.1215 66.1683 17.1004 63.1716 15.721 59.8417C14.3932 56.6358 13.6603 53.1213 13.6603 49.4361C13.6603 45.7509 14.3932 42.2364 15.721 39.0305C17.1004 35.7005 19.1215 32.7038 21.63 30.1954C24.1384 27.687 27.1351 25.6658 30.4651 24.2865C33.6708 22.9588 37.1853 22.2257 40.8706 22.2257C42.453 22.2257 44.0046 22.3611 45.5137 22.6207C47.0285 22.8811 49.5608 23.5976 50.9791 24.0973V22.3602C49.5475 21.8878 47.006 21.1937 45.4848 20.9492Z" fill="#1B8E7F"/>
<path fill-rule="evenodd" clip-rule="evenodd" d="M37.7207 58.877L35.5934 58.8743V55.4197L32.4551 55.4084L32.45 53.4361L35.0037 53.4295V53.4293H35.0228L35.5923 53.4278L35.5934 52.8V52.7983L35.5958 51.3599C35.5569 51.2986 35.6612 51.3144 35.4702 51.2914L32.4604 51.2986C32.5019 51.0241 32.4705 50.236 32.4728 49.7094L32.4661 49.4479C32.4652 49.4423 32.4579 49.4373 32.4569 49.4254C32.4562 49.4139 32.45 49.4116 32.4463 49.4048L32.4432 49.3684L35.5886 49.3615L35.6025 40.4442L41.265 40.4471C42.052 40.4356 43.173 40.4847 43.9156 40.6201C46.1291 41.0232 47.4778 43.2601 47.5224 45.7277C47.5651 48.0852 46.5265 50.3243 44.1195 51.023C43.5799 51.1796 42.2009 51.3377 41.6054 51.2995L37.7371 51.3218C37.6814 51.5246 37.7152 53.0843 37.7156 53.339C37.717 53.3898 37.7174 53.4165 37.7181 53.4293H37.7342C37.7388 53.4271 37.7448 53.4264 37.7528 53.4293H43.3V55.3437V55.415H43.2126L43.213 55.4151L37.7243 55.415L37.7207 58.877ZM53.896 88.1871C58.1165 86.7688 62.0294 84.6801 65.5081 82.0479L64.5552 80.7075L64.5137 80.7387L58.4756 72.2985C58.0498 72.6269 57.6146 72.9435 57.1704 73.2481L63.2069 81.6858C60.2135 83.763 56.9173 85.4344 53.3975 86.6197C49.4635 87.9448 45.2506 88.6629 40.8707 88.6629C35.5576 88.6629 30.491 87.6064 25.8695 85.6922C21.0692 83.704 16.7492 80.7901 13.1329 77.1738C9.51664 73.5575 6.60274 69.2375 4.61434 64.437C2.70012 59.8157 1.6436 54.7489 1.6436 49.436C1.6436 38.6038 6.03447 28.797 13.1329 21.6983C16.6003 18.2309 20.7145 15.4097 25.2792 13.4306C29.0893 11.7788 33.2132 10.714 37.5365 10.35V20.7728C38.1917 20.6974 38.8536 20.644 39.5216 20.6133V10.2329V8.58804C34.2522 8.75889 29.2346 9.92704 24.6521 11.91C19.8866 13.9722 15.5908 16.9162 11.9708 20.5362C8.20231 24.3047 5.16635 28.8054 3.09498 33.8062C1.10055 38.6208 0 43.8999 0 49.436C0 54.9722 1.10055 60.2513 3.09498 65.0659C5.16635 70.0667 8.20231 74.5674 11.9708 78.3359C15.7391 82.1042 20.24 85.1404 25.2408 87.2117C30.0554 89.206 35.3345 90.3067 40.8707 90.3067C45.4252 90.3067 49.8055 89.5617 53.896 88.1871ZM85.4364 50.0997L56.94 49.8081L73.9006 72.2378C77.7673 69.4124 80.5428 66.0996 82.4035 62.3786C84.2543 58.6768 85.2083 54.5571 85.4364 50.0997ZM55.1597 48.0276L87.2607 48.3561L87.2344 49.2522C87.0862 54.3044 86.0748 58.9752 83.979 63.1665C81.8782 67.368 78.6966 71.073 74.2138 74.1793L73.5185 74.6611L53.3653 48.0091L55.1597 48.0276ZM86.8335 37.5286L51.0018 37.8955V0L51.9037 0.0202824C62.1328 0.249784 70.9496 4.41023 77.2759 10.8825C83.8304 17.5881 87.7076 26.7777 87.7076 36.6475V37.5197L86.8335 37.5286ZM52.7709 36.1151L85.9348 35.7756C85.7141 26.709 82.0596 18.3004 76.0113 12.1126C70.1816 6.14849 62.124 2.24842 52.7709 1.81354V36.1151ZM42.1148 49.3235L37.7315 49.3597C37.6893 49.1477 37.6958 42.6827 37.7349 42.5314C37.9812 42.5044 42.0739 42.5035 42.0984 42.5673C42.4452 42.5223 43.1147 42.5815 43.4683 42.6352C45.6917 42.9731 45.9804 47.7577 44.3797 48.8212C43.9178 49.1282 42.8454 49.3238 42.1148 49.3235Z" fill="#010101"/>
</svg>
