<svg width="23" height="18" viewBox="0 0 23 18" fill="none" xmlns="http://www.w3.org/2000/svg">
<path fill-rule="evenodd" clip-rule="evenodd" d="M4.78221 7.34211C4.87014 7.22484 4.99323 7.09216 5.12903 6.95661C5.26358 6.82228 5.41155 6.68365 5.55003 6.55409L5.7047 6.4087L5.84083 6.27782C6.19791 5.92673 6.67161 5.47199 7.18006 4.98387L7.18365 4.98042C8.26039 3.94672 9.49363 2.76286 10.0789 2.12363C10.2641 1.92077 10.3714 1.6989 10.4141 1.47784C10.4612 1.23423 10.431 0.989823 10.3418 0.771928C10.3074 0.687936 10.2637 0.607064 10.212 0.531487C10.1603 0.455909 10.1011 0.386239 10.0357 0.324179C9.96992 0.261884 9.8969 0.206393 9.81817 0.159646C9.74198 0.114224 9.66076 0.0773571 9.57633 0.0509823C9.3563 -0.0179322 9.10531 -0.0210965 8.84009 0.0668647C8.5972 0.147406 8.3418 0.304421 8.08617 0.556679L0.661937 7.85319C0.427623 8.08238 0.257039 8.29191 0.147836 8.48863C0.0434731 8.67708 -0.00492207 8.85338 0.000395606 9.02415C0.0056675 9.19558 0.0656593 9.37118 0.177352 9.55674C0.294173 9.75091 0.466866 9.95486 0.692219 10.1748L8.11377 17.4714C8.18693 17.5426 8.2672 17.6186 8.35436 17.6888C8.4397 17.7575 8.53347 17.8223 8.63659 17.8739C8.73649 17.924 8.84766 17.9633 8.97181 17.9838C9.09745 18.0046 9.23732 18.0067 9.39329 17.9825C9.50177 17.9657 9.60388 17.9349 9.69847 17.8931C9.7979 17.8492 9.88942 17.7925 9.97121 17.7268C10.0581 17.657 10.1342 17.577 10.1977 17.4911C10.2633 17.4023 10.3165 17.3062 10.3555 17.2072C10.5181 16.7952 10.4376 16.4392 10.2395 16.1149C10.0306 15.773 9.69124 15.46 9.36042 15.1549L9.17747 14.9856C9.11647 14.9285 9.05615 14.8711 8.99735 14.8133L5.81064 11.6914C5.72837 11.6103 5.62985 11.5182 5.52655 11.4214L5.52348 11.4185C5.38994 11.2937 5.2482 11.1609 5.11892 11.0318C4.98748 10.9005 4.86827 10.7719 4.7824 10.6573L4.40826 10.229C5.13401 10.2735 5.85382 10.2187 6.59006 10.234L6.596 10.2342C6.79112 10.2382 6.97867 10.242 7.20804 10.242L20.4134 10.242C20.4879 10.242 20.6346 10.2453 20.7871 10.2486L20.7995 10.2488C21.3434 10.2607 21.9815 10.2747 22.3168 10.1073C22.447 10.0423 22.5583 9.96082 22.6508 9.86771C22.7482 9.76949 22.8251 9.65808 22.8813 9.5394C22.922 9.45328 22.9523 9.36224 22.9721 9.26894C22.9923 9.1737 23.0015 9.07648 22.9998 8.97987C22.9981 8.88415 22.9853 8.78773 22.9618 8.69353C22.9388 8.60117 22.9051 8.5108 22.8611 8.42501C22.8008 8.30737 22.7205 8.19814 22.621 8.10342C22.5261 8.01309 22.4136 7.93543 22.2842 7.87588L21.6093 7.75332L4.95533 7.73592L4.45623 7.72382L4.78221 7.34211Z" fill="white"/>
</svg>
